<svg id="svg" version="1.1" xmlns="http://www.w3.org/2000/svg" xmlns:xlink="http://www.w3.org/1999/xlink" width="400" height="64.64646464646465" viewBox="0, 0, 400,64.64646464646465"><g id="svgg"><path id="path0" d="M236.167 4.250 C 235.762 4.662,235.468 5.000,235.514 5.000 C 235.560 5.000,235.928 4.662,236.333 4.250 C 236.738 3.837,237.032 3.500,236.986 3.500 C 236.940 3.500,236.572 3.837,236.167 4.250 M232.411 8.375 L 231.417 9.417 232.458 8.422 C 233.031 7.875,233.500 7.406,233.500 7.380 C 233.500 7.257,233.336 7.407,232.411 8.375 M245.917 7.557 C 244.205 8.123,244.428 7.910,236.857 16.202 C 228.168 25.718,228.174 25.710,228.169 29.285 C 228.155 38.892,241.052 41.422,245.559 32.697 C 247.203 29.512,247.439 29.429,255.000 29.364 C 263.348 29.292,262.575 28.964,266.916 34.423 C 271.649 40.375,273.272 41.415,276.917 40.833 C 284.596 39.607,285.600 29.438,278.328 26.548 C 277.643 26.276,276.514 26.246,264.333 26.168 L 251.083 26.083 250.487 25.712 C 249.032 24.808,249.114 24.069,251.236 18.932 C 253.130 14.347,253.415 13.311,253.159 11.961 C 252.542 8.707,248.982 6.542,245.917 7.557 M187.805 7.792 C 193.426 7.816,202.576 7.816,208.138 7.792 C 213.700 7.767,209.100 7.747,197.917 7.747 C 186.733 7.747,182.183 7.767,187.805 7.792 M229.409 11.678 C 229.349 11.776,229.138 11.922,228.941 12.001 C 228.697 12.100,228.668 12.149,228.849 12.156 C 228.995 12.162,229.251 12.017,229.417 11.833 C 229.583 11.650,229.674 11.500,229.619 11.500 C 229.564 11.500,229.470 11.580,229.409 11.678 M261.717 12.833 C 261.717 13.338,261.748 13.544,261.786 13.292 C 261.824 13.040,261.824 12.627,261.786 12.375 C 261.748 12.123,261.717 12.329,261.717 12.833 M81.388 14.792 C 86.138 14.816,93.863 14.816,98.554 14.792 C 103.245 14.767,99.358 14.747,89.917 14.747 C 80.475 14.747,76.637 14.767,81.388 14.792 M132.292 14.792 C 136.990 14.816,144.677 14.816,149.375 14.792 C 154.073 14.767,150.229 14.747,140.833 14.747 C 131.438 14.747,127.594 14.767,132.292 14.792 M302.054 14.792 C 306.805 14.816,314.530 14.816,319.221 14.792 C 323.912 14.767,320.025 14.747,310.583 14.747 C 301.142 14.747,297.304 14.767,302.054 14.792 M367.054 14.958 C 370.429 14.983,375.904 14.983,379.221 14.958 C 382.537 14.933,379.775 14.912,373.083 14.912 C 366.392 14.912,363.678 14.933,367.054 14.958 M176.743 16.511 C 174.606 17.132,173.554 20.057,174.739 22.080 C 175.260 22.968,175.450 23.106,178.500 24.796 C 187.567 29.821,188.015 30.024,189.449 29.755 C 192.057 29.266,193.429 26.520,192.211 24.226 C 190.910 21.774,190.940 21.859,191.139 21.195 C 191.242 20.851,191.557 20.348,191.840 20.076 L 192.355 19.583 197.719 19.531 C 205.161 19.460,204.485 19.140,209.058 24.887 C 213.300 30.218,214.087 30.800,217.281 30.961 C 226.232 31.414,228.220 18.840,219.553 16.583 C 218.457 16.297,177.714 16.229,176.743 16.511 M346.211 17.786 C 346.464 17.825,346.839 17.824,347.044 17.784 C 347.249 17.744,347.042 17.713,346.583 17.714 C 346.125 17.716,345.957 17.748,346.211 17.786 M72.263 23.351 C 63.539 24.623,64.020 36.991,72.833 38.005 C 76.156 38.387,107.398 38.144,108.619 37.726 C 116.193 35.136,115.302 24.476,107.417 23.341 C 105.976 23.134,73.691 23.143,72.263 23.351 M123.167 23.350 C 116.040 24.521,114.595 34.195,121.086 37.278 C 122.949 38.163,123.513 38.186,141.937 38.130 L 158.583 38.080 159.674 37.710 C 166.656 35.347,166.555 26.009,159.520 23.533 C 158.638 23.223,124.973 23.054,123.167 23.350 M292.930 23.351 C 284.206 24.623,284.687 36.991,293.500 38.005 C 296.823 38.387,328.064 38.144,329.286 37.726 C 336.874 35.131,335.984 24.478,328.083 23.341 C 326.643 23.134,294.358 23.143,292.930 23.351 M13.017 23.597 C 5.402 25.645,5.835 36.554,13.589 37.987 C 14.229 38.105,18.830 38.167,27.037 38.167 C 43.589 38.167,42.715 37.676,39.599 45.219 C 37.566 50.141,37.429 50.590,37.564 51.891 C 37.973 55.836,42.134 58.077,45.784 56.318 C 46.811 55.823,49.142 53.375,60.030 41.356 C 63.547 37.473,63.535 32.298,59.999 28.814 C 55.483 24.363,48.274 25.653,45.285 31.448 C 44.361 33.239,43.759 33.896,42.501 34.486 L 41.583 34.917 35.417 34.917 L 29.250 34.917 28.319 34.480 C 27.110 33.913,26.762 33.548,23.565 29.491 C 20.730 25.893,19.647 24.752,18.529 24.181 C 16.910 23.356,14.762 23.128,13.017 23.597 M359.963 23.760 C 359.164 24.193,358.960 24.951,359.409 25.818 C 359.703 26.387,360.148 26.572,362.058 26.917 C 367.636 27.925,373.167 30.951,373.167 32.994 C 373.167 34.965,372.118 35.221,364.425 35.127 C 357.014 35.036,356.585 34.880,354.924 31.663 C 353.119 28.169,350.247 26.333,346.583 26.333 C 339.095 26.333,334.840 34.768,339.397 40.580 C 340.154 41.545,352.572 55.094,353.210 55.651 C 356.887 58.858,362.594 56.330,362.579 51.500 L 362.574 50.083 360.767 45.750 C 358.831 41.110,358.631 40.375,359.073 39.520 C 359.720 38.268,358.949 38.335,372.750 38.331 C 380.129 38.328,385.552 38.259,386.250 38.159 C 394.372 36.990,394.918 25.856,386.957 23.737 C 385.620 23.381,360.622 23.402,359.963 23.760 M173.667 26.405 C 166.123 28.504,166.478 39.135,174.145 40.760 C 175.925 41.137,215.066 41.111,216.345 40.732 C 220.072 39.626,220.098 35.350,216.390 33.274 C 206.242 27.593,205.265 27.146,203.748 27.486 C 200.883 28.127,199.853 30.942,201.492 33.654 C 202.338 35.054,202.463 35.712,202.032 36.500 C 201.359 37.728,201.238 37.750,195.250 37.750 C 188.158 37.750,188.810 38.066,184.448 32.514 C 179.712 26.487,177.624 25.304,173.667 26.405 M33.625 26.458 C 34.473 26.488,35.860 26.488,36.708 26.458 C 37.556 26.427,36.862 26.403,35.167 26.403 C 33.471 26.403,32.777 26.427,33.625 26.458 M89.927 27.911 C 91.881 28.885,92.343 31.028,90.942 32.624 C 89.887 33.825,89.881 33.826,82.417 33.826 C 75.052 33.826,74.985 33.817,73.969 32.729 C 72.508 31.166,73.055 28.755,75.083 27.816 C 75.697 27.532,76.284 27.507,82.426 27.504 L 89.101 27.500 89.927 27.911 M97.339 28.067 C 99.208 29.304,99.271 31.865,97.464 33.173 C 94.520 35.307,90.828 31.439,93.214 28.722 C 94.327 27.454,96.009 27.187,97.339 28.067 M140.630 27.758 C 142.811 28.668,143.401 31.235,141.788 32.796 C 140.721 33.828,140.679 33.833,133.371 33.833 L 126.732 33.833 125.864 33.401 C 124.729 32.835,124.167 31.929,124.167 30.667 C 124.167 29.404,124.729 28.498,125.864 27.933 L 126.732 27.500 133.371 27.500 C 138.992 27.500,140.106 27.540,140.630 27.758 M147.559 27.704 C 149.781 28.370,150.478 31.218,148.814 32.833 C 145.909 35.652,141.455 31.450,144.300 28.574 C 145.233 27.631,146.334 27.337,147.559 27.704 M310.593 27.911 C 312.548 28.885,313.010 31.028,311.609 32.624 C 310.554 33.825,310.548 33.826,303.083 33.826 C 295.719 33.826,295.652 33.817,294.636 32.729 C 293.175 31.166,293.722 28.755,295.750 27.816 C 296.363 27.532,296.950 27.507,303.092 27.504 L 309.768 27.500 310.593 27.911 M318.006 28.067 C 319.875 29.304,319.938 31.865,318.131 33.173 C 315.186 35.307,311.494 31.439,313.881 28.722 C 314.994 27.454,316.676 27.187,318.006 28.067 M254.292 37.791 C 255.048 37.822,256.285 37.822,257.042 37.791 C 257.798 37.760,257.179 37.735,255.667 37.735 C 254.154 37.735,253.535 37.760,254.292 37.791 M249.494 41.625 L 248.583 42.583 249.542 41.672 C 250.069 41.171,250.500 40.740,250.500 40.714 C 250.500 40.590,250.341 40.735,249.494 41.625 M224.073 45.875 L 223.583 46.417 224.125 45.927 C 224.630 45.471,224.743 45.333,224.615 45.333 C 224.586 45.333,224.342 45.577,224.073 45.875 M374.375 46.792 C 376.552 46.818,380.115 46.818,382.292 46.792 C 384.469 46.765,382.688 46.744,378.333 46.744 C 373.979 46.744,372.198 46.765,374.375 46.792 M64.244 49.375 L 63.417 50.250 64.292 49.423 C 64.773 48.968,65.167 48.574,65.167 48.548 C 65.167 48.424,65.012 48.562,64.244 49.375 M275.458 49.451 C 275.665 49.491,276.002 49.491,276.208 49.451 C 276.415 49.411,276.246 49.379,275.833 49.379 C 275.421 49.379,275.252 49.411,275.458 49.451 M336.583 50.333 C 337.128 50.883,337.610 51.333,337.656 51.333 C 337.702 51.333,337.294 50.883,336.750 50.333 C 336.206 49.783,335.723 49.333,335.677 49.333 C 335.631 49.333,336.039 49.783,336.583 50.333 M60.578 53.375 L 59.583 54.417 60.625 53.422 C 61.593 52.498,61.743 52.333,61.620 52.333 C 61.594 52.333,61.125 52.802,60.578 53.375 M340.083 54.167 C 340.628 54.717,341.110 55.167,341.156 55.167 C 341.202 55.167,340.794 54.717,340.250 54.167 C 339.706 53.617,339.223 53.167,339.177 53.167 C 339.131 53.167,339.539 53.617,340.083 54.167 M341.333 55.552 C 341.333 55.581,341.577 55.825,341.875 56.094 L 342.417 56.583 341.927 56.042 C 341.471 55.537,341.333 55.423,341.333 55.552 M57.161 57.125 L 56.250 58.083 57.208 57.172 C 57.735 56.671,58.167 56.240,58.167 56.214 C 58.167 56.090,58.007 56.235,57.161 57.125 M55.324 59.125 L 54.750 59.750 55.375 59.176 C 55.719 58.860,56.000 58.578,56.000 58.551 C 56.000 58.423,55.859 58.543,55.324 59.125 M345.250 59.833 C 345.608 60.200,345.938 60.500,345.984 60.500 C 346.030 60.500,345.775 60.200,345.417 59.833 C 345.059 59.467,344.728 59.167,344.682 59.167 C 344.637 59.167,344.892 59.467,345.250 59.833 M53.409 61.208 L 52.750 61.917 53.458 61.258 C 54.117 60.645,54.243 60.500,54.117 60.500 C 54.090 60.500,53.771 60.819,53.409 61.208 M367.500 60.886 C 367.130 61.196,366.258 62.167,366.351 62.167 C 366.395 62.167,366.762 61.829,367.167 61.417 C 367.870 60.700,368.033 60.441,367.500 60.886 M34.833 62.727 C 34.833 62.773,35.058 62.971,35.333 63.167 C 35.608 63.362,35.833 63.485,35.833 63.439 C 35.833 63.394,35.608 63.196,35.333 63.000 C 35.058 62.804,34.833 62.681,34.833 62.727 " stroke="none" fill="#fbfbfb" fill-rule="evenodd"></path><path id="path1" d="M245.510 6.932 C 243.845 7.536,243.891 7.491,236.165 15.938 C 227.845 25.035,227.481 25.588,227.455 29.167 C 227.379 39.485,241.201 42.475,246.077 33.196 C 247.726 30.056,248.013 29.963,255.785 30.032 L 261.583 30.083 262.479 30.580 C 263.248 31.005,263.802 31.616,266.378 34.876 C 271.190 40.967,273.079 42.152,277.008 41.544 C 285.536 40.224,286.504 28.728,278.333 25.805 L 277.250 25.418 264.110 25.334 L 250.971 25.250 250.551 24.762 C 249.949 24.062,250.045 23.671,251.919 19.165 C 253.779 14.693,254.076 13.677,253.933 12.264 C 253.541 8.396,249.146 5.614,245.510 6.932 M249.870 7.793 C 252.196 8.828,253.591 11.377,253.147 13.778 C 253.051 14.301,252.190 16.621,251.236 18.932 C 249.114 24.069,249.032 24.808,250.487 25.712 L 251.083 26.083 264.333 26.168 C 276.514 26.246,277.643 26.276,278.328 26.548 C 285.600 29.438,284.596 39.607,276.917 40.833 C 273.272 41.415,271.649 40.375,266.916 34.423 C 262.575 28.964,263.348 29.292,255.000 29.364 C 247.439 29.429,247.203 29.512,245.559 32.697 C 243.531 36.624,239.980 38.571,235.875 38.007 C 229.006 37.063,225.761 28.905,230.151 23.619 C 231.153 22.412,242.802 9.677,243.575 8.943 C 245.233 7.369,247.844 6.892,249.870 7.793 M177.120 15.682 C 172.770 16.706,172.188 21.740,176.125 24.281 C 177.872 25.409,177.855 25.488,175.875 25.486 C 166.351 25.477,164.164 38.224,173.167 41.273 C 174.042 41.569,175.042 41.583,195.250 41.583 L 216.417 41.583 217.167 41.231 C 220.757 39.544,220.710 34.908,217.082 32.832 C 216.216 32.337,215.656 31.843,215.938 31.823 C 216.018 31.817,216.796 31.787,217.667 31.756 C 227.848 31.391,228.852 17.391,218.820 15.686 C 217.475 15.458,178.089 15.454,177.120 15.682 M219.553 16.583 C 228.220 18.840,226.232 31.414,217.281 30.961 C 214.087 30.800,213.300 30.218,209.058 24.887 C 204.485 19.140,205.161 19.460,197.719 19.531 L 192.355 19.583 191.840 20.076 C 191.557 20.348,191.242 20.851,191.139 21.195 C 190.940 21.859,190.910 21.774,192.211 24.226 C 193.429 26.520,192.057 29.266,189.449 29.755 C 188.015 30.024,187.567 29.821,178.500 24.796 C 175.450 23.106,175.260 22.968,174.739 22.080 C 173.554 20.057,174.606 17.132,176.743 16.511 C 177.714 16.229,218.457 16.297,219.553 16.583 M203.657 20.413 C 204.814 20.822,205.283 21.269,207.576 24.152 C 212.537 30.391,212.497 30.224,208.543 28.137 L 205.917 26.750 204.583 26.753 C 200.584 26.762,198.744 30.487,200.939 34.132 C 202.497 36.719,201.768 37.085,195.083 37.078 C 188.462 37.072,189.182 37.461,184.375 31.297 C 181.081 27.074,181.083 27.043,184.557 28.945 C 186.940 30.250,187.613 30.500,188.741 30.500 C 192.515 30.500,194.443 26.951,192.583 23.426 C 191.591 21.544,191.657 20.714,192.833 20.284 C 193.464 20.054,202.958 20.167,203.657 20.413 M72.000 22.670 C 63.161 24.270,62.968 36.720,71.753 38.581 C 73.447 38.940,106.339 38.950,108.027 38.592 C 116.197 36.861,116.925 25.946,109.070 22.960 L 108.083 22.585 90.417 22.559 C 80.700 22.545,72.412 22.595,72.000 22.670 M122.750 22.695 C 113.968 24.358,114.169 37.230,123.000 38.656 C 124.470 38.893,157.170 38.896,158.667 38.659 C 167.589 37.246,167.869 24.615,159.020 22.740 C 157.700 22.460,124.210 22.419,122.750 22.695 M292.667 22.670 C 283.828 24.270,283.635 36.720,292.420 38.581 C 294.114 38.940,327.006 38.950,328.694 38.592 C 336.869 36.860,337.596 25.948,329.737 22.960 L 328.750 22.585 311.083 22.559 C 301.367 22.545,293.079 22.595,292.667 22.670 M12.938 22.852 C 6.095 24.459,4.588 34.078,10.626 37.617 C 12.686 38.825,11.596 38.741,26.389 38.833 L 39.694 38.917 40.199 39.481 C 40.876 40.240,40.869 40.271,38.726 45.417 L 36.922 49.750 36.919 51.333 C 36.911 56.125,41.722 59.088,46.043 56.953 C 47.838 56.066,61.167 41.633,62.352 39.293 C 65.546 32.987,60.811 25.490,53.643 25.502 C 49.744 25.509,46.593 27.443,44.793 30.932 C 43.152 34.114,43.005 34.165,35.417 34.165 C 27.586 34.165,28.496 34.571,24.204 29.167 C 20.321 24.278,19.625 23.661,17.178 22.935 C 16.194 22.643,14.008 22.600,12.938 22.852 M360.354 22.830 C 358.738 23.222,357.989 24.911,358.825 26.281 C 359.265 27.002,359.540 27.122,361.837 27.598 C 364.979 28.247,368.014 29.382,370.508 30.838 C 372.591 32.055,372.996 32.863,372.013 33.846 L 371.526 34.333 365.304 34.332 C 357.237 34.331,357.149 34.304,355.590 31.328 C 353.661 27.644,350.444 25.598,346.583 25.598 C 338.944 25.598,334.213 34.013,338.325 40.287 C 338.906 41.173,348.775 52.110,351.858 55.284 C 355.488 59.022,360.580 58.514,362.702 54.204 C 363.831 51.910,363.695 51.005,361.381 45.417 C 359.467 40.796,359.411 40.617,359.677 39.976 C 360.057 39.058,359.593 39.090,373.750 38.998 C 386.881 38.912,386.919 38.911,387.903 38.539 C 395.449 35.683,395.189 25.759,387.500 23.125 C 386.359 22.734,361.850 22.468,360.354 22.830 M107.417 23.341 C 115.302 24.476,116.193 35.136,108.619 37.726 C 107.398 38.144,76.156 38.387,72.833 38.005 C 64.020 36.991,63.539 24.623,72.263 23.351 C 73.691 23.143,105.976 23.134,107.417 23.341 M159.520 23.533 C 166.555 26.009,166.656 35.347,159.674 37.710 L 158.583 38.080 141.937 38.130 C 123.513 38.186,122.949 38.163,121.086 37.278 C 114.595 34.195,116.040 24.521,123.167 23.350 C 124.973 23.054,158.638 23.223,159.520 23.533 M328.083 23.341 C 335.984 24.478,336.874 35.131,329.286 37.726 C 328.064 38.144,296.823 38.387,293.500 38.005 C 284.687 36.991,284.206 24.623,292.930 23.351 C 294.358 23.143,326.643 23.134,328.083 23.341 M16.887 23.583 C 19.131 24.167,19.918 24.863,23.565 29.491 C 26.762 33.548,27.110 33.913,28.319 34.480 L 29.250 34.917 35.417 34.917 L 41.583 34.917 42.501 34.486 C 43.759 33.896,44.361 33.239,45.285 31.448 C 48.274 25.653,55.483 24.363,59.999 28.814 C 63.535 32.298,63.547 37.473,60.030 41.356 C 49.142 53.375,46.811 55.823,45.784 56.318 C 42.134 58.077,37.973 55.836,37.564 51.891 C 37.429 50.590,37.566 50.141,39.599 45.219 C 41.423 40.805,41.569 40.205,41.042 39.302 C 40.352 38.119,40.935 38.167,27.037 38.167 C 12.128 38.167,12.058 38.159,9.985 36.220 C 4.255 30.862,9.309 21.609,16.887 23.583 M386.957 23.737 C 394.918 25.856,394.372 36.990,386.250 38.159 C 385.552 38.259,380.129 38.328,372.750 38.331 C 356.511 38.336,357.435 37.764,360.767 45.750 L 362.574 50.083 362.579 51.500 C 362.594 56.330,356.887 58.858,353.210 55.651 C 352.572 55.094,340.154 41.545,339.397 40.580 C 334.840 34.768,339.095 26.333,346.583 26.333 C 350.247 26.333,353.119 28.169,354.924 31.663 C 356.585 34.880,357.014 35.036,364.425 35.127 C 372.118 35.221,373.167 34.965,373.167 32.994 C 373.167 30.951,367.636 27.925,362.058 26.917 C 360.148 26.572,359.703 26.387,359.409 25.818 C 358.960 24.951,359.164 24.193,359.963 23.760 C 360.622 23.402,385.620 23.381,386.957 23.737 M177.481 26.343 C 179.716 26.858,180.663 27.698,184.448 32.514 C 188.810 38.066,188.158 37.750,195.250 37.750 C 201.238 37.750,201.359 37.728,202.032 36.500 C 202.463 35.712,202.338 35.054,201.492 33.654 C 199.853 30.942,200.883 28.127,203.748 27.486 C 205.265 27.146,206.242 27.593,216.390 33.274 C 219.391 34.954,220.074 37.638,218.023 39.690 C 216.626 41.087,218.130 41.000,195.345 40.997 C 171.831 40.994,172.857 41.078,170.573 38.972 C 164.946 33.786,169.965 24.611,177.481 26.343 M75.083 27.816 C 73.853 28.386,73.167 29.406,73.167 30.667 C 73.167 31.927,73.853 32.948,75.083 33.517 C 76.095 33.986,88.722 33.990,89.751 33.523 C 92.313 32.359,92.413 29.150,89.927 27.911 L 89.101 27.500 82.426 27.504 C 76.284 27.507,75.697 27.532,75.083 27.816 M94.415 27.801 C 92.245 28.819,91.785 31.347,93.488 32.886 C 95.155 34.392,97.523 33.935,98.498 31.920 C 99.698 29.441,96.912 26.630,94.415 27.801 M125.864 27.933 C 124.729 28.498,124.167 29.404,124.167 30.667 C 124.167 31.929,124.729 32.835,125.864 33.401 L 126.732 33.833 133.371 33.833 C 140.679 33.833,140.721 33.828,141.788 32.796 C 143.022 31.601,143.022 29.732,141.788 28.538 C 140.721 27.505,140.679 27.500,133.371 27.500 L 126.732 27.500 125.864 27.933 M145.417 27.813 C 142.835 28.997,142.735 32.174,145.240 33.422 C 148.380 34.987,151.286 31.048,148.847 28.534 C 147.880 27.537,146.603 27.269,145.417 27.813 M295.750 27.816 C 294.519 28.386,293.833 29.406,293.833 30.667 C 293.833 31.927,294.519 32.948,295.750 33.517 C 296.762 33.986,309.389 33.990,310.418 33.523 C 312.979 32.359,313.079 29.150,310.593 27.911 L 309.768 27.500 303.092 27.504 C 296.950 27.507,296.363 27.532,295.750 27.816 M315.082 27.801 C 312.912 28.819,312.451 31.347,314.155 32.886 C 315.821 34.392,318.190 33.935,319.165 31.920 C 320.365 29.441,317.578 26.630,315.082 27.801 M89.069 28.326 C 91.217 28.824,91.627 31.365,89.780 32.735 C 89.296 33.094,78.053 33.378,76.035 33.082 C 73.518 32.714,73.149 29.047,75.559 28.349 C 76.246 28.150,88.222 28.130,89.069 28.326 M140.666 28.592 C 142.653 29.760,142.310 32.350,140.083 32.995 C 138.866 33.347,126.707 33.159,126.083 32.778 C 124.282 31.676,124.588 28.934,126.579 28.340 C 127.730 27.997,140.027 28.217,140.666 28.592 M309.736 28.326 C 311.884 28.824,312.294 31.365,310.446 32.735 C 309.873 33.159,297.773 33.376,296.373 32.986 C 294.048 32.340,293.973 29.026,296.267 28.340 C 296.914 28.146,308.908 28.134,309.736 28.326 M96.950 28.660 C 97.602 29.057,98.045 29.870,98.045 30.667 C 98.045 33.482,93.761 33.867,93.242 31.098 C 92.864 29.083,95.164 27.571,96.950 28.660 M147.893 28.650 C 149.952 30.007,149.032 32.996,146.554 32.999 C 145.097 33.001,144.050 31.817,144.215 30.354 C 144.401 28.703,146.500 27.731,147.893 28.650 M317.617 28.660 C 318.269 29.057,318.712 29.870,318.712 30.667 C 318.712 33.482,314.428 33.867,313.908 31.098 C 313.530 29.083,315.831 27.571,317.617 28.660 " stroke="none" fill="#ccccec" fill-rule="evenodd"></path><path id="path2" d="M241.404 0.276 C 241.494 0.513,241.471 0.518,241.223 0.315 C 240.968 0.108,240.951 0.119,241.062 0.417 C 241.160 0.679,241.143 0.707,240.982 0.547 C 240.822 0.388,240.728 0.406,240.543 0.631 C 240.384 0.825,240.344 0.836,240.419 0.667 C 240.479 0.529,240.366 0.604,240.167 0.833 C 239.967 1.063,239.860 1.145,239.928 1.016 C 240.009 0.862,239.986 0.822,239.859 0.901 C 239.753 0.966,239.667 1.128,239.667 1.260 C 239.667 1.392,239.587 1.500,239.490 1.500 C 239.393 1.500,239.361 1.406,239.420 1.292 C 239.478 1.177,239.370 1.260,239.179 1.477 C 238.989 1.693,238.833 1.806,238.833 1.727 C 238.832 1.648,238.663 1.774,238.458 2.008 C 238.252 2.241,238.148 2.316,238.227 2.175 C 238.306 2.033,238.156 2.147,237.893 2.429 C 237.631 2.711,237.123 3.205,236.765 3.528 C 236.281 3.963,236.170 4.149,236.332 4.249 C 236.467 4.333,236.511 4.320,236.446 4.215 C 236.389 4.121,236.492 3.908,236.677 3.740 C 237.011 3.439,237.011 3.440,236.759 3.927 C 236.619 4.196,236.428 4.417,236.335 4.417 C 235.867 4.417,233.988 6.368,234.202 6.632 C 234.364 6.832,234.365 6.867,234.209 6.772 C 234.078 6.694,233.707 6.938,233.209 7.431 C 232.773 7.862,232.548 8.119,232.708 8.003 C 232.953 7.827,233.000 7.836,233.000 8.063 C 233.000 8.298,232.706 8.418,232.292 8.353 C 232.223 8.342,232.185 8.409,232.208 8.502 C 232.231 8.594,231.875 9.012,231.417 9.431 C 230.958 9.849,230.696 10.135,230.833 10.068 C 230.971 10.000,230.596 10.417,230.000 10.994 C 229.404 11.571,229.104 11.902,229.333 11.730 L 229.750 11.417 229.433 11.792 C 229.050 12.243,228.864 12.261,228.548 11.875 C 228.416 11.715,228.356 11.677,228.414 11.792 C 228.472 11.906,228.440 12.000,228.343 12.000 C 228.246 12.000,228.167 11.897,228.167 11.770 C 228.167 11.644,228.040 11.438,227.885 11.312 C 227.642 11.115,227.621 11.118,227.732 11.333 C 227.804 11.471,227.699 11.396,227.500 11.167 C 227.301 10.938,227.178 10.831,227.228 10.931 C 227.278 11.030,227.213 11.111,227.083 11.111 C 226.954 11.111,226.880 11.060,226.919 10.997 C 226.958 10.934,226.874 10.740,226.732 10.566 C 226.591 10.392,226.525 10.362,226.585 10.500 C 226.646 10.637,226.541 10.563,226.352 10.333 C 226.162 10.104,226.006 9.987,226.004 10.074 C 226.002 10.160,225.882 10.085,225.738 9.907 C 225.593 9.729,225.524 9.696,225.583 9.833 C 225.655 10.000,225.612 9.987,225.454 9.794 C 225.324 9.635,225.168 9.554,225.109 9.614 C 225.049 9.673,225.000 9.630,225.000 9.518 C 225.000 9.406,224.925 9.360,224.833 9.417 C 224.742 9.473,224.667 9.432,224.667 9.325 C 224.667 9.218,224.554 9.174,224.417 9.227 C 224.279 9.280,224.167 9.246,224.167 9.152 C 224.167 9.057,224.097 9.023,224.012 9.076 C 223.926 9.129,223.811 9.099,223.756 9.010 C 223.701 8.921,223.546 8.890,223.411 8.942 C 223.277 8.993,223.167 8.945,223.167 8.833 C 223.167 8.722,223.057 8.673,222.922 8.725 C 222.787 8.777,222.630 8.742,222.572 8.648 C 222.514 8.554,222.364 8.517,222.238 8.565 C 222.113 8.613,221.964 8.577,221.908 8.486 C 221.851 8.395,221.662 8.365,221.486 8.421 C 221.295 8.482,221.167 8.444,221.167 8.327 C 221.167 8.212,221.051 8.175,220.888 8.238 C 220.735 8.297,220.557 8.259,220.493 8.155 C 220.405 8.014,220.285 8.014,220.019 8.157 C 219.738 8.307,219.671 8.302,219.706 8.132 C 219.730 8.014,219.600 7.909,219.417 7.900 C 219.233 7.890,219.027 7.871,218.958 7.856 C 218.580 7.777,176.953 7.843,176.823 7.923 C 176.737 7.976,176.597 7.977,176.512 7.924 C 176.426 7.871,176.307 7.907,176.247 8.004 C 176.188 8.101,175.995 8.135,175.819 8.079 C 175.633 8.020,175.500 8.056,175.500 8.167 C 175.500 8.277,175.367 8.314,175.181 8.254 C 175.005 8.199,174.815 8.228,174.759 8.319 C 174.702 8.411,174.553 8.446,174.428 8.398 C 174.303 8.350,174.153 8.387,174.095 8.481 C 174.037 8.575,173.879 8.610,173.745 8.558 C 173.610 8.507,173.500 8.555,173.500 8.667 C 173.500 8.778,173.394 8.828,173.264 8.778 C 173.134 8.728,172.980 8.812,172.921 8.964 C 172.830 9.202,172.794 9.207,172.660 8.995 C 172.531 8.790,172.505 8.789,172.503 8.986 C 172.501 9.116,172.451 9.173,172.391 9.114 C 172.332 9.054,172.176 9.135,172.046 9.294 C 171.888 9.487,171.845 9.500,171.917 9.333 C 171.976 9.196,171.907 9.229,171.762 9.407 C 171.618 9.585,171.498 9.660,171.496 9.574 C 171.494 9.487,171.338 9.604,171.148 9.833 C 170.959 10.063,170.855 10.137,170.917 10.000 C 170.978 9.862,170.866 9.938,170.667 10.167 C 170.467 10.396,170.355 10.471,170.416 10.333 C 170.478 10.196,170.290 10.346,170.000 10.667 C 169.710 10.987,169.527 11.137,169.594 11.000 C 169.662 10.862,169.443 11.008,169.108 11.324 C 168.472 11.925,168.358 12.093,168.708 11.912 C 168.823 11.853,168.729 11.967,168.500 12.167 C 168.271 12.366,168.196 12.479,168.333 12.419 C 168.471 12.359,168.358 12.510,168.083 12.756 C 167.808 13.002,167.696 13.152,167.833 13.089 C 167.971 13.026,167.933 13.114,167.750 13.285 C 167.567 13.455,167.392 13.705,167.361 13.839 C 167.331 13.973,167.165 14.215,166.992 14.376 C 166.819 14.537,166.721 14.781,166.774 14.918 C 166.826 15.055,166.778 15.167,166.667 15.167 C 166.555 15.167,166.507 15.279,166.560 15.417 C 166.613 15.554,166.579 15.667,166.484 15.667 C 166.387 15.667,166.357 15.813,166.417 16.000 C 166.482 16.205,166.447 16.333,166.325 16.333 C 166.213 16.333,166.164 16.471,166.211 16.652 C 166.312 17.040,165.738 17.259,165.595 16.888 C 165.544 16.755,165.427 16.692,165.335 16.749 C 165.242 16.806,165.167 16.769,165.167 16.667 C 165.167 16.564,165.092 16.527,165.000 16.583 C 164.908 16.640,164.833 16.602,164.833 16.500 C 164.833 16.398,164.758 16.360,164.667 16.417 C 164.575 16.473,164.500 16.436,164.500 16.333 C 164.500 16.231,164.425 16.193,164.333 16.250 C 164.242 16.307,164.167 16.266,164.167 16.159 C 164.167 16.052,164.059 16.006,163.927 16.056 C 163.796 16.107,163.658 16.058,163.621 15.949 C 163.572 15.802,163.479 15.812,163.268 15.987 C 163.020 16.191,162.988 16.191,163.032 15.987 C 163.064 15.840,162.972 15.769,162.792 15.799 C 162.631 15.826,162.500 15.765,162.500 15.663 C 162.500 15.556,162.365 15.521,162.181 15.579 C 162.005 15.635,161.815 15.605,161.759 15.514 C 161.702 15.423,161.553 15.387,161.428 15.435 C 161.303 15.483,161.150 15.441,161.089 15.342 C 161.027 15.243,160.904 15.206,160.815 15.262 C 160.725 15.317,160.551 15.278,160.427 15.175 C 160.303 15.072,160.138 15.003,160.059 15.021 C 159.981 15.038,159.791 14.998,159.638 14.930 C 159.485 14.863,159.210 14.888,159.026 14.986 C 158.806 15.104,158.675 15.107,158.637 14.996 C 158.553 14.741,122.458 14.790,122.057 15.045 C 121.950 15.112,121.744 15.122,121.598 15.066 C 121.453 15.010,121.333 15.039,121.333 15.131 C 121.333 15.223,121.217 15.342,121.075 15.397 C 120.926 15.454,120.859 15.426,120.918 15.331 C 120.974 15.241,120.940 15.167,120.843 15.167 C 120.746 15.167,120.667 15.247,120.667 15.345 C 120.667 15.444,120.526 15.478,120.347 15.421 C 120.172 15.365,119.982 15.395,119.925 15.486 C 119.869 15.577,119.720 15.613,119.595 15.565 C 119.470 15.517,119.320 15.554,119.262 15.648 C 119.203 15.742,119.046 15.777,118.911 15.725 C 118.777 15.673,118.667 15.722,118.667 15.833 C 118.667 15.945,118.554 15.993,118.417 15.940 C 118.279 15.887,118.167 15.924,118.167 16.023 C 118.167 16.122,118.054 16.159,117.917 16.106 C 117.779 16.054,117.667 16.088,117.667 16.182 C 117.667 16.276,117.592 16.307,117.500 16.250 C 117.408 16.193,117.333 16.224,117.333 16.318 C 117.333 16.412,117.221 16.447,117.085 16.394 C 116.943 16.340,116.792 16.413,116.734 16.565 C 116.678 16.712,116.565 16.790,116.483 16.739 C 116.400 16.688,116.333 16.726,116.333 16.823 C 116.333 16.921,116.240 16.981,116.125 16.958 C 116.010 16.935,115.928 17.051,115.941 17.214 C 115.960 17.449,115.917 17.472,115.735 17.321 C 115.608 17.215,115.391 17.173,115.252 17.226 C 115.113 17.279,115.000 17.246,115.000 17.152 C 115.000 17.057,114.924 17.027,114.832 17.084 C 114.740 17.141,114.619 17.071,114.565 16.928 C 114.510 16.785,114.398 16.710,114.316 16.761 C 114.234 16.812,114.167 16.769,114.167 16.667 C 114.167 16.564,114.092 16.527,114.000 16.583 C 113.908 16.640,113.833 16.602,113.833 16.500 C 113.833 16.398,113.758 16.360,113.667 16.417 C 113.575 16.473,113.500 16.436,113.500 16.333 C 113.500 16.231,113.425 16.193,113.333 16.250 C 113.242 16.307,113.167 16.276,113.167 16.182 C 113.167 16.088,113.054 16.054,112.917 16.106 C 112.779 16.159,112.667 16.122,112.667 16.023 C 112.667 15.924,112.562 15.884,112.434 15.933 C 112.305 15.982,112.153 15.946,112.095 15.852 C 112.037 15.758,111.879 15.723,111.745 15.775 C 111.610 15.827,111.500 15.781,111.500 15.673 C 111.500 15.553,111.371 15.519,111.167 15.583 C 110.975 15.644,110.833 15.613,110.833 15.511 C 110.833 15.413,110.754 15.333,110.657 15.333 C 110.560 15.333,110.526 15.407,110.582 15.498 C 110.641 15.593,110.574 15.621,110.425 15.564 C 110.283 15.509,110.167 15.392,110.167 15.304 C 110.167 15.216,110.023 15.190,109.847 15.246 C 109.672 15.301,109.480 15.269,109.421 15.173 C 109.346 15.052,109.214 15.052,108.988 15.173 C 108.743 15.304,108.673 15.296,108.706 15.140 C 108.766 14.858,109.937 14.876,89.979 14.850 C 78.250 14.834,72.056 14.884,71.761 14.996 C 71.435 15.120,71.346 15.115,71.430 14.978 C 71.501 14.863,71.456 14.823,71.315 14.874 C 71.188 14.920,71.103 15.046,71.127 15.153 C 71.160 15.295,71.084 15.301,70.846 15.173 C 70.620 15.052,70.487 15.052,70.413 15.173 C 70.354 15.269,70.162 15.301,69.986 15.246 C 69.799 15.186,69.667 15.223,69.667 15.333 C 69.667 15.447,69.533 15.480,69.333 15.417 C 69.134 15.353,69.000 15.387,69.000 15.500 C 69.000 15.613,68.866 15.647,68.667 15.583 C 68.463 15.519,68.333 15.553,68.333 15.673 C 68.333 15.781,68.223 15.827,68.089 15.775 C 67.954 15.723,67.797 15.758,67.738 15.852 C 67.680 15.946,67.528 15.982,67.400 15.933 C 67.272 15.884,67.167 15.924,67.167 16.023 C 67.167 16.122,67.054 16.159,66.917 16.106 C 66.779 16.054,66.667 16.088,66.667 16.182 C 66.667 16.276,66.592 16.307,66.500 16.250 C 66.408 16.193,66.333 16.231,66.333 16.333 C 66.333 16.436,66.258 16.473,66.167 16.417 C 66.075 16.360,66.000 16.398,66.000 16.500 C 66.000 16.602,65.912 16.632,65.805 16.566 C 65.671 16.483,65.646 16.539,65.725 16.746 C 65.823 17.001,65.802 17.015,65.587 16.836 C 65.378 16.663,65.333 16.673,65.333 16.896 C 65.333 17.045,65.254 17.167,65.157 17.167 C 65.060 17.167,65.034 17.080,65.099 16.974 C 65.173 16.855,65.145 16.827,65.026 16.901 C 64.920 16.966,64.833 17.128,64.833 17.260 C 64.833 17.392,64.754 17.500,64.657 17.500 C 64.560 17.500,64.528 17.406,64.586 17.292 C 64.644 17.177,64.568 17.233,64.417 17.417 C 64.266 17.600,64.078 17.733,63.998 17.712 C 63.919 17.691,63.807 17.822,63.749 18.003 C 63.691 18.185,63.570 18.333,63.479 18.333 C 63.388 18.333,63.361 18.240,63.419 18.125 C 63.477 18.010,63.323 18.142,63.077 18.417 C 62.831 18.692,62.681 18.804,62.744 18.667 C 62.806 18.529,62.670 18.636,62.440 18.905 C 62.055 19.356,61.333 19.620,61.333 19.311 C 61.333 19.237,61.221 19.220,61.083 19.273 C 60.945 19.326,60.833 19.278,60.833 19.164 C 60.833 19.005,60.777 19.006,60.580 19.170 C 60.367 19.346,60.343 19.336,60.431 19.105 C 60.510 18.900,60.468 18.856,60.269 18.933 C 60.118 18.990,60.000 18.952,60.000 18.845 C 60.000 18.706,59.910 18.703,59.664 18.835 C 59.406 18.973,59.339 18.964,59.373 18.799 C 59.397 18.680,59.315 18.605,59.191 18.631 C 59.067 18.657,58.870 18.599,58.754 18.503 C 58.637 18.407,58.428 18.371,58.288 18.425 C 58.148 18.479,57.983 18.441,57.922 18.342 C 57.861 18.243,57.737 18.206,57.648 18.262 C 57.559 18.317,57.379 18.274,57.250 18.167 C 57.121 18.059,56.941 18.016,56.852 18.072 C 56.763 18.127,56.639 18.091,56.578 17.991 C 56.517 17.892,56.352 17.855,56.212 17.908 C 56.072 17.962,55.864 17.928,55.749 17.833 C 55.608 17.716,55.399 17.713,55.104 17.826 C 54.804 17.939,54.667 17.937,54.667 17.817 C 54.667 17.671,51.680 17.690,51.333 17.837 C 51.288 17.857,51.186 17.861,51.107 17.847 C 51.029 17.833,50.870 17.901,50.754 17.997 C 50.637 18.093,50.420 18.126,50.271 18.068 C 50.122 18.011,50.000 18.046,50.000 18.147 C 50.000 18.247,49.831 18.312,49.625 18.290 C 49.392 18.265,49.267 18.332,49.294 18.465 C 49.329 18.635,49.262 18.640,48.981 18.490 C 48.715 18.347,48.595 18.347,48.507 18.488 C 48.443 18.593,48.265 18.630,48.112 18.571 C 47.949 18.509,47.833 18.546,47.833 18.660 C 47.833 18.785,47.703 18.814,47.475 18.742 C 47.180 18.649,47.136 18.681,47.229 18.921 C 47.325 19.173,47.304 19.183,47.074 18.993 C 46.852 18.808,46.783 18.811,46.657 19.011 C 46.573 19.142,46.502 19.175,46.497 19.083 C 46.493 18.992,46.408 19.057,46.309 19.228 C 46.163 19.480,46.100 19.496,45.983 19.312 C 45.869 19.131,45.838 19.129,45.836 19.302 C 45.834 19.421,45.758 19.473,45.667 19.417 C 45.575 19.360,45.500 19.398,45.500 19.500 C 45.500 19.602,45.428 19.642,45.339 19.587 C 45.251 19.533,45.026 19.641,44.839 19.827 C 44.653 20.014,44.498 20.110,44.495 20.042 C 44.492 19.973,44.379 20.062,44.245 20.240 C 44.110 20.418,43.998 20.493,43.996 20.407 C 43.994 20.321,43.838 20.438,43.648 20.667 C 43.459 20.896,43.354 20.971,43.415 20.833 C 43.475 20.696,43.409 20.726,43.268 20.900 C 43.126 21.073,43.060 21.298,43.121 21.400 C 43.181 21.501,43.109 21.485,42.960 21.364 C 42.701 21.154,42.188 21.633,42.423 21.867 C 42.465 21.910,42.389 21.944,42.253 21.944 C 42.065 21.944,42.050 21.890,42.190 21.722 C 42.674 21.139,42.132 21.619,41.087 22.699 C 40.449 23.358,40.037 23.841,40.172 23.770 C 40.307 23.700,40.192 23.835,39.917 24.070 C 39.642 24.306,39.490 24.499,39.579 24.499 C 39.668 24.500,39.573 24.618,39.368 24.761 C 39.162 24.905,39.035 25.088,39.084 25.168 C 39.133 25.248,39.041 25.390,38.879 25.485 C 38.716 25.579,38.651 25.659,38.733 25.662 C 38.815 25.664,38.680 25.854,38.432 26.083 C 37.940 26.540,32.167 26.761,32.167 26.323 C 32.167 26.226,32.097 26.190,32.012 26.243 C 31.926 26.296,31.809 26.261,31.750 26.167 C 31.691 26.072,31.586 26.030,31.516 26.073 C 31.446 26.117,31.389 26.046,31.389 25.917 C 31.389 25.787,31.470 25.721,31.569 25.770 C 31.669 25.819,31.563 25.695,31.333 25.494 C 31.104 25.293,30.917 25.071,30.917 25.000 C 30.917 24.929,30.729 24.707,30.500 24.506 C 30.271 24.305,30.196 24.191,30.333 24.251 C 30.471 24.312,30.321 24.124,30.000 23.833 C 29.679 23.543,29.529 23.355,29.667 23.417 C 29.804 23.478,29.654 23.290,29.333 23.000 C 29.012 22.710,28.863 22.524,29.000 22.588 C 29.137 22.651,29.025 22.502,28.750 22.256 C 28.475 22.010,28.363 21.858,28.500 21.918 C 28.637 21.978,28.525 21.821,28.250 21.569 C 27.975 21.317,27.750 21.057,27.750 20.991 C 27.750 20.925,27.563 20.707,27.333 20.506 C 27.104 20.305,27.029 20.195,27.167 20.261 C 27.304 20.327,27.044 19.995,26.590 19.524 C 25.811 18.717,25.535 18.486,25.733 18.806 C 25.780 18.882,25.713 18.944,25.583 18.944 C 25.454 18.944,25.377 18.897,25.413 18.839 C 25.506 18.688,25.209 18.250,25.013 18.250 C 24.922 18.250,24.726 18.100,24.578 17.917 C 24.430 17.733,24.357 17.696,24.417 17.833 C 24.477 17.971,24.370 17.906,24.179 17.690 C 23.989 17.473,23.832 17.361,23.830 17.440 C 23.828 17.519,23.671 17.396,23.482 17.167 C 23.293 16.938,23.187 16.862,23.248 17.000 C 23.321 17.165,23.278 17.152,23.121 16.961 C 22.990 16.802,22.835 16.721,22.775 16.780 C 22.716 16.840,22.667 16.797,22.667 16.685 C 22.667 16.572,22.592 16.527,22.500 16.583 C 22.408 16.640,22.333 16.602,22.333 16.500 C 22.333 16.398,22.258 16.360,22.167 16.417 C 22.075 16.473,22.000 16.443,22.000 16.348 C 22.000 16.254,21.887 16.220,21.750 16.273 C 21.612 16.326,21.500 16.282,21.500 16.175 C 21.500 16.068,21.430 16.023,21.345 16.076 C 21.260 16.129,21.145 16.099,21.090 16.010 C 21.034 15.921,20.887 15.887,20.762 15.935 C 20.636 15.983,20.486 15.946,20.428 15.852 C 20.370 15.758,20.213 15.723,20.078 15.775 C 19.943 15.827,19.833 15.781,19.833 15.673 C 19.833 15.556,19.705 15.518,19.514 15.579 C 19.338 15.635,19.149 15.605,19.092 15.514 C 19.036 15.423,18.887 15.387,18.762 15.435 C 18.636 15.483,18.483 15.441,18.422 15.342 C 18.361 15.243,18.237 15.206,18.148 15.262 C 18.059 15.317,17.879 15.274,17.750 15.167 C 17.621 15.059,17.433 15.022,17.333 15.083 C 17.234 15.145,17.056 15.115,16.938 15.018 C 16.797 14.901,16.543 14.892,16.195 14.992 C 15.882 15.082,15.667 15.082,15.667 14.993 C 15.667 14.910,15.067 14.859,14.333 14.880 C 13.600 14.900,13.000 14.978,13.000 15.053 C 13.000 15.128,12.856 15.144,12.681 15.088 C 12.505 15.032,12.311 15.068,12.250 15.167 C 12.189 15.266,11.995 15.301,11.819 15.246 C 11.644 15.190,11.500 15.216,11.500 15.304 C 11.500 15.392,11.384 15.509,11.241 15.564 C 11.093 15.621,11.026 15.593,11.085 15.498 C 11.141 15.407,11.107 15.333,11.010 15.333 C 10.913 15.333,10.833 15.413,10.833 15.511 C 10.833 15.613,10.691 15.644,10.500 15.583 C 10.296 15.519,10.167 15.553,10.167 15.673 C 10.167 15.781,10.057 15.827,9.922 15.775 C 9.787 15.723,9.630 15.758,9.572 15.852 C 9.514 15.946,9.364 15.983,9.238 15.935 C 9.113 15.887,8.966 15.921,8.910 16.010 C 8.855 16.099,8.746 16.132,8.667 16.083 C 8.588 16.035,8.475 16.072,8.417 16.167 C 8.358 16.261,8.240 16.296,8.155 16.243 C 8.070 16.190,8.000 16.231,8.000 16.333 C 8.000 16.436,7.925 16.473,7.833 16.417 C 7.742 16.360,7.667 16.398,7.667 16.500 C 7.667 16.602,7.592 16.640,7.500 16.583 C 7.408 16.527,7.333 16.564,7.333 16.667 C 7.333 16.769,7.258 16.806,7.165 16.749 C 7.073 16.692,6.953 16.762,6.898 16.905 C 6.843 17.048,6.739 17.128,6.667 17.083 C 6.594 17.039,6.490 17.119,6.435 17.262 C 6.381 17.404,6.266 17.478,6.180 17.425 C 6.094 17.372,5.976 17.480,5.917 17.664 C 5.859 17.849,5.736 18.000,5.646 18.000 C 5.555 18.000,5.528 17.906,5.586 17.792 C 5.644 17.677,5.570 17.733,5.422 17.917 C 5.274 18.100,5.084 18.250,5.000 18.250 C 4.916 18.250,4.726 18.400,4.578 18.583 C 4.430 18.767,4.358 18.804,4.418 18.667 C 4.479 18.529,4.316 18.662,4.056 18.962 C 3.796 19.262,3.358 19.698,3.083 19.932 C 2.808 20.166,2.696 20.309,2.833 20.250 C 2.971 20.191,2.858 20.344,2.583 20.590 C 2.308 20.835,2.196 20.985,2.333 20.923 C 2.471 20.860,2.358 21.010,2.083 21.256 C 1.808 21.502,1.696 21.651,1.833 21.587 C 1.971 21.523,1.896 21.626,1.667 21.815 C 1.438 22.004,1.325 22.163,1.417 22.168 C 1.508 22.173,1.448 22.256,1.282 22.352 C 1.042 22.492,1.022 22.575,1.181 22.767 C 1.342 22.961,1.331 22.989,1.124 22.909 C 0.983 22.855,0.810 22.902,0.741 23.014 C 0.665 23.138,0.684 23.175,0.792 23.109 C 0.907 23.038,0.901 23.145,0.776 23.415 C 0.670 23.644,0.523 23.831,0.448 23.832 C 0.374 23.833,0.360 23.908,0.417 24.000 C 0.473 24.092,0.443 24.167,0.348 24.167 C 0.254 24.167,0.225 24.291,0.284 24.444 C 0.354 24.628,0.326 24.682,0.199 24.603 C -0.115 24.409,-0.069 36.908,0.246 37.222 C 0.377 37.353,0.438 37.507,0.381 37.563 C 0.324 37.620,0.372 37.667,0.486 37.667 C 0.601 37.667,0.663 37.760,0.624 37.875 C 0.586 37.990,0.673 38.183,0.819 38.304 C 0.976 38.435,0.988 38.475,0.849 38.403 C 0.690 38.321,0.655 38.347,0.741 38.486 C 0.810 38.598,0.983 38.645,1.124 38.591 C 1.337 38.509,1.345 38.536,1.170 38.746 C 0.958 39.002,1.110 39.098,1.583 39.008 C 1.675 38.990,1.661 39.067,1.552 39.178 C 1.398 39.334,1.436 39.452,1.718 39.703 C 1.919 39.880,1.971 39.977,1.833 39.917 C 1.696 39.857,1.733 39.930,1.917 40.078 C 2.100 40.226,2.250 40.422,2.250 40.513 C 2.250 40.604,2.362 40.748,2.500 40.833 C 2.637 40.918,2.750 41.053,2.750 41.132 C 2.750 41.212,3.162 41.683,3.665 42.180 C 4.169 42.677,4.507 42.968,4.415 42.827 C 4.324 42.686,4.463 42.798,4.722 43.077 C 4.982 43.355,5.146 43.490,5.088 43.375 C 5.029 43.260,5.060 43.167,5.157 43.167 C 5.254 43.167,5.333 43.275,5.333 43.407 C 5.333 43.539,5.420 43.701,5.526 43.766 C 5.656 43.846,5.673 43.809,5.579 43.651 C 5.503 43.522,5.676 43.666,5.965 43.971 C 6.254 44.276,6.568 44.478,6.662 44.420 C 6.756 44.361,6.833 44.398,6.833 44.500 C 6.833 44.602,6.909 44.640,7.001 44.583 C 7.093 44.526,7.214 44.596,7.269 44.738 C 7.323 44.881,7.435 44.957,7.517 44.906 C 7.600 44.855,7.668 44.912,7.669 45.032 C 7.671 45.190,7.716 45.182,7.833 45.000 C 7.969 44.789,7.995 44.799,7.997 45.059 C 7.999 45.266,8.083 45.337,8.250 45.273 C 8.388 45.220,8.500 45.247,8.500 45.333 C 8.500 45.419,8.613 45.446,8.750 45.394 C 8.888 45.341,9.000 45.378,9.000 45.477 C 9.000 45.576,9.105 45.616,9.233 45.567 C 9.361 45.518,9.517 45.559,9.578 45.658 C 9.639 45.757,9.768 45.790,9.863 45.731 C 9.959 45.672,10.094 45.716,10.164 45.829 C 10.261 45.986,10.375 45.990,10.648 45.843 C 10.928 45.693,10.995 45.698,10.961 45.868 C 10.933 46.002,11.059 46.068,11.292 46.044 C 11.498 46.022,11.667 46.086,11.667 46.186 C 11.667 46.287,11.786 46.323,11.932 46.267 C 12.077 46.211,12.280 46.217,12.382 46.280 C 12.766 46.517,13.628 46.547,21.667 46.605 C 26.204 46.637,29.950 46.664,29.992 46.665 C 30.033 46.666,29.983 46.751,29.880 46.854 C 29.777 46.956,29.732 47.144,29.781 47.270 C 29.829 47.397,29.786 47.500,29.684 47.500 C 29.583 47.500,29.500 47.579,29.500 47.677 C 29.500 47.774,29.583 47.802,29.684 47.739 C 29.785 47.677,29.737 47.825,29.578 48.068 C 29.419 48.311,29.335 48.557,29.393 48.615 C 29.450 48.672,29.414 48.820,29.311 48.943 C 29.175 49.108,29.176 49.227,29.317 49.397 C 29.465 49.576,29.447 49.651,29.237 49.732 C 29.084 49.791,29.006 49.943,29.059 50.079 C 29.110 50.213,29.080 50.367,28.993 50.421 C 28.777 50.554,28.789 52.120,29.007 52.254 C 29.102 52.313,29.137 52.499,29.083 52.667 C 29.030 52.835,29.068 53.022,29.167 53.083 C 29.266 53.145,29.303 53.332,29.250 53.500 C 29.197 53.668,29.228 53.851,29.319 53.908 C 29.411 53.964,29.446 54.113,29.398 54.238 C 29.350 54.364,29.392 54.517,29.491 54.578 C 29.591 54.639,29.629 54.760,29.576 54.845 C 29.523 54.930,29.539 55.094,29.610 55.208 C 29.769 55.463,29.858 55.822,29.856 56.205 C 29.855 56.364,29.926 56.538,30.013 56.592 C 30.101 56.646,30.129 56.760,30.076 56.845 C 30.023 56.930,30.068 57.000,30.175 57.000 C 30.282 57.000,30.326 57.112,30.273 57.250 C 30.220 57.387,30.254 57.500,30.348 57.500 C 30.443 57.500,30.473 57.575,30.417 57.667 C 30.360 57.758,30.398 57.833,30.500 57.833 C 30.602 57.833,30.640 57.908,30.583 58.000 C 30.527 58.092,30.597 58.167,30.740 58.167 C 30.883 58.167,31.000 58.246,31.000 58.343 C 31.000 58.440,30.906 58.471,30.792 58.412 C 30.677 58.353,30.771 58.467,31.000 58.667 C 31.229 58.866,31.304 58.979,31.167 58.919 C 31.029 58.858,31.067 58.930,31.250 59.078 C 31.433 59.226,31.583 59.416,31.583 59.500 C 31.583 59.584,31.733 59.774,31.917 59.922 C 32.100 60.070,32.137 60.137,32.000 60.071 C 31.863 60.004,32.017 60.205,32.344 60.516 C 32.671 60.828,32.802 60.978,32.636 60.849 C 32.075 60.415,32.328 60.759,33.120 61.507 C 33.553 61.916,33.797 62.096,33.662 61.907 C 33.527 61.719,33.633 61.794,33.897 62.074 C 34.161 62.354,34.322 62.471,34.254 62.333 C 34.186 62.196,34.331 62.308,34.577 62.583 C 34.823 62.858,34.967 62.971,34.897 62.833 C 34.727 62.500,35.243 62.870,35.810 63.488 C 36.026 63.724,36.152 63.804,36.089 63.667 C 36.015 63.504,36.059 63.518,36.212 63.706 C 36.343 63.865,36.498 63.946,36.558 63.886 C 36.618 63.827,36.667 63.870,36.667 63.982 C 36.667 64.094,36.736 64.143,36.822 64.090 C 36.907 64.038,37.025 64.072,37.083 64.167 C 37.142 64.261,37.254 64.299,37.333 64.250 C 37.412 64.201,37.522 64.234,37.576 64.322 C 37.636 64.419,39.783 64.488,43.017 64.495 C 47.303 64.506,48.333 64.466,48.230 64.296 C 48.152 64.166,48.223 64.180,48.412 64.333 C 48.636 64.515,48.739 64.529,48.788 64.384 C 48.825 64.275,48.963 64.227,49.094 64.277 C 49.226 64.328,49.333 64.282,49.333 64.175 C 49.333 64.068,49.408 64.027,49.500 64.083 C 49.592 64.140,49.667 64.102,49.667 64.000 C 49.667 63.898,49.742 63.860,49.833 63.917 C 49.925 63.973,50.000 63.936,50.000 63.833 C 50.000 63.731,50.067 63.688,50.149 63.739 C 50.231 63.790,50.343 63.715,50.398 63.572 C 50.453 63.429,50.569 63.356,50.655 63.410 C 50.742 63.463,50.890 63.374,50.985 63.212 C 51.079 63.049,51.160 62.992,51.165 63.083 C 51.170 63.175,51.329 63.063,51.518 62.833 C 51.707 62.604,51.810 62.529,51.746 62.667 C 51.682 62.804,51.831 62.692,52.077 62.417 C 52.323 62.142,52.476 62.029,52.417 62.167 C 52.358 62.304,52.504 62.192,52.742 61.917 C 52.980 61.642,53.248 61.435,53.337 61.458 C 53.427 61.481,53.481 61.432,53.458 61.349 C 53.435 61.266,53.948 60.684,54.597 60.057 C 55.245 59.430,55.578 59.067,55.336 59.250 C 55.093 59.433,55.350 59.156,55.906 58.633 C 56.462 58.110,56.917 57.595,56.917 57.489 C 56.917 57.383,57.442 56.807,58.083 56.209 C 58.725 55.611,59.100 55.221,58.917 55.342 C 58.733 55.464,59.126 55.057,59.788 54.438 C 60.451 53.819,60.976 53.241,60.955 53.155 C 60.934 53.068,61.292 52.654,61.750 52.236 C 62.208 51.818,62.471 51.530,62.333 51.597 C 62.196 51.664,62.700 51.139,63.455 50.432 C 64.209 49.724,64.809 49.082,64.788 49.005 C 64.767 48.929,65.050 48.588,65.417 48.248 C 65.783 47.908,65.933 47.724,65.750 47.840 C 65.567 47.956,65.829 47.657,66.333 47.174 C 66.837 46.691,67.125 46.384,66.971 46.491 C 66.734 46.657,66.706 46.636,66.782 46.345 C 66.831 46.157,66.935 46.043,67.013 46.091 C 67.091 46.139,67.294 46.039,67.465 45.868 C 67.804 45.530,68.340 45.274,68.312 45.464 C 68.265 45.777,68.361 45.830,68.669 45.665 C 68.927 45.527,68.995 45.536,68.961 45.701 C 68.936 45.820,69.029 45.919,69.167 45.921 C 69.304 45.923,69.510 45.984,69.625 46.056 C 69.740 46.128,69.912 46.138,70.007 46.079 C 70.103 46.020,70.287 46.059,70.417 46.167 C 70.546 46.274,70.725 46.317,70.815 46.262 C 70.904 46.206,71.024 46.237,71.082 46.331 C 71.139 46.424,71.261 46.500,71.353 46.500 C 71.445 46.500,71.472 46.423,71.415 46.330 C 71.357 46.236,71.596 46.275,71.947 46.415 C 72.860 46.780,108.667 46.680,108.667 46.311 C 108.667 46.234,108.835 46.188,109.042 46.210 C 109.275 46.235,109.400 46.168,109.373 46.035 C 109.339 45.871,109.407 45.861,109.654 45.993 C 109.880 46.114,110.013 46.114,110.087 45.994 C 110.146 45.898,110.338 45.865,110.514 45.921 C 110.701 45.980,110.833 45.944,110.833 45.833 C 110.833 45.720,110.967 45.687,111.167 45.750 C 111.366 45.813,111.500 45.780,111.500 45.667 C 111.500 45.553,111.634 45.520,111.833 45.583 C 112.037 45.648,112.167 45.613,112.167 45.493 C 112.167 45.386,112.279 45.341,112.417 45.394 C 112.554 45.446,112.667 45.419,112.667 45.333 C 112.667 45.247,112.779 45.220,112.917 45.273 C 113.054 45.326,113.167 45.282,113.167 45.175 C 113.167 45.068,113.242 45.027,113.333 45.083 C 113.425 45.140,113.500 45.102,113.500 45.000 C 113.500 44.898,113.575 44.860,113.667 44.917 C 113.758 44.973,113.833 44.936,113.833 44.833 C 113.833 44.731,113.908 44.693,114.000 44.750 C 114.092 44.807,114.167 44.769,114.167 44.667 C 114.167 44.564,114.242 44.527,114.335 44.584 C 114.427 44.641,114.547 44.571,114.602 44.428 C 114.657 44.285,114.769 44.210,114.851 44.261 C 114.933 44.312,115.000 44.286,115.000 44.205 C 115.000 43.971,115.734 44.059,115.894 44.312 C 116.017 44.505,116.061 44.505,116.184 44.312 C 116.296 44.134,116.329 44.150,116.331 44.385 C 116.332 44.551,116.409 44.640,116.501 44.583 C 116.593 44.526,116.712 44.591,116.765 44.729 C 116.821 44.875,116.970 44.937,117.124 44.878 C 117.314 44.805,117.349 44.839,117.250 45.000 C 117.149 45.163,117.187 45.195,117.389 45.117 C 117.542 45.058,117.667 45.081,117.667 45.167 C 117.667 45.253,117.779 45.280,117.917 45.227 C 118.054 45.174,118.167 45.212,118.167 45.310 C 118.167 45.409,118.279 45.446,118.417 45.394 C 118.554 45.341,118.667 45.378,118.667 45.477 C 118.667 45.576,118.772 45.616,118.900 45.567 C 119.028 45.518,119.183 45.559,119.245 45.658 C 119.306 45.757,119.435 45.790,119.530 45.731 C 119.626 45.672,119.761 45.716,119.831 45.829 C 119.928 45.986,120.041 45.990,120.315 45.843 C 120.595 45.693,120.662 45.698,120.627 45.868 C 120.602 45.993,120.721 46.071,120.914 46.054 C 121.096 46.037,121.293 46.101,121.351 46.196 C 121.423 46.312,121.573 46.306,121.815 46.177 C 122.092 46.028,122.162 46.032,122.127 46.194 C 122.056 46.530,122.302 46.535,140.417 46.609 C 157.520 46.678,158.948 46.654,158.735 46.308 C 158.665 46.196,158.753 46.201,158.978 46.322 C 159.259 46.472,159.421 46.450,159.784 46.213 C 160.033 46.050,160.179 46.010,160.109 46.125 C 160.038 46.240,160.055 46.333,160.147 46.333 C 160.239 46.333,160.358 46.262,160.412 46.174 C 160.466 46.086,160.613 46.054,160.738 46.102 C 160.864 46.150,161.018 46.106,161.081 46.005 C 161.143 45.903,161.338 45.865,161.514 45.921 C 161.701 45.980,161.833 45.944,161.833 45.833 C 161.833 45.720,161.967 45.687,162.167 45.750 C 162.366 45.813,162.500 45.780,162.500 45.667 C 162.500 45.553,162.634 45.520,162.833 45.583 C 163.037 45.648,163.167 45.613,163.167 45.493 C 163.167 45.386,163.279 45.341,163.417 45.394 C 163.554 45.446,163.667 45.412,163.667 45.318 C 163.667 45.224,163.750 45.199,163.852 45.262 C 163.954 45.325,164.099 45.277,164.174 45.155 C 164.281 44.981,164.374 45.005,164.613 45.267 C 164.780 45.450,164.862 45.514,164.794 45.411 C 164.723 45.301,164.772 45.222,164.912 45.222 C 165.044 45.222,165.123 45.270,165.087 45.327 C 164.994 45.479,165.291 45.917,165.487 45.917 C 165.578 45.917,165.774 46.067,165.922 46.250 C 166.070 46.433,166.142 46.471,166.081 46.333 C 166.021 46.196,166.111 46.254,166.281 46.463 C 166.533 46.771,166.632 46.802,166.808 46.629 C 166.926 46.512,167.010 46.492,166.992 46.583 C 166.924 46.942,167.008 47.181,167.168 47.083 C 167.260 47.026,167.381 47.096,167.435 47.238 C 167.490 47.381,167.602 47.457,167.684 47.406 C 167.766 47.355,167.833 47.398,167.833 47.500 C 167.833 47.602,167.908 47.640,168.000 47.583 C 168.092 47.527,168.167 47.564,168.167 47.667 C 168.167 47.769,168.242 47.807,168.333 47.750 C 168.425 47.693,168.500 47.736,168.500 47.844 C 168.500 47.989,168.566 47.986,168.754 47.830 C 168.968 47.652,168.990 47.666,168.892 47.920 C 168.816 48.119,168.839 48.183,168.960 48.108 C 169.061 48.046,169.191 48.072,169.250 48.167 C 169.309 48.261,169.421 48.299,169.500 48.250 C 169.579 48.201,169.689 48.234,169.744 48.323 C 169.799 48.412,169.954 48.443,170.089 48.392 C 170.223 48.340,170.333 48.386,170.333 48.493 C 170.333 48.610,170.462 48.648,170.653 48.588 C 170.828 48.532,171.022 48.568,171.083 48.667 C 171.145 48.766,171.338 48.801,171.514 48.746 C 171.701 48.686,171.833 48.723,171.833 48.833 C 171.833 48.944,171.966 48.980,172.153 48.921 C 172.328 48.865,172.521 48.899,172.581 48.996 C 172.641 49.093,172.760 49.129,172.845 49.076 C 172.930 49.023,173.094 49.041,173.208 49.114 C 173.323 49.188,173.567 49.263,173.750 49.282 C 173.933 49.301,174.571 49.373,175.167 49.441 C 176.586 49.603,214.308 49.604,215.500 49.442 C 216.004 49.373,216.567 49.301,216.750 49.282 C 216.933 49.263,217.177 49.188,217.292 49.114 C 217.406 49.041,217.570 49.023,217.655 49.076 C 217.740 49.129,217.859 49.093,217.919 48.996 C 217.979 48.899,218.172 48.865,218.347 48.921 C 218.534 48.980,218.667 48.944,218.667 48.833 C 218.667 48.723,218.799 48.686,218.986 48.746 C 219.162 48.801,219.357 48.764,219.419 48.662 C 219.482 48.560,219.639 48.518,219.767 48.567 C 219.895 48.616,220.000 48.576,220.000 48.477 C 220.000 48.378,220.112 48.341,220.250 48.394 C 220.387 48.446,220.500 48.419,220.500 48.333 C 220.500 48.247,220.625 48.225,220.777 48.284 C 220.951 48.350,221.014 48.324,220.945 48.212 C 220.885 48.115,220.951 47.990,221.093 47.936 C 221.262 47.871,221.315 47.908,221.246 48.044 C 221.189 48.157,221.260 48.104,221.404 47.926 C 221.549 47.749,221.668 47.674,221.669 47.760 C 221.671 47.846,221.743 47.804,221.830 47.667 C 221.917 47.529,222.062 47.417,222.153 47.417 C 222.244 47.417,222.440 47.267,222.589 47.083 C 222.737 46.900,222.810 46.862,222.750 47.000 C 222.691 47.137,222.844 47.025,223.090 46.750 C 223.335 46.475,223.484 46.362,223.420 46.500 C 223.357 46.637,223.457 46.563,223.643 46.333 C 223.829 46.104,224.079 45.917,224.199 45.917 C 224.319 45.917,224.417 45.826,224.417 45.716 C 224.417 45.605,224.567 45.393,224.750 45.245 C 224.933 45.097,224.971 45.024,224.833 45.083 C 224.696 45.143,224.733 45.070,224.917 44.922 C 225.100 44.774,225.250 44.584,225.250 44.500 C 225.250 44.416,225.400 44.226,225.583 44.078 C 225.767 43.930,225.804 43.857,225.667 43.916 C 225.529 43.976,225.642 43.823,225.917 43.577 C 226.192 43.331,226.328 43.177,226.220 43.234 C 226.112 43.292,225.986 43.278,225.940 43.204 C 225.742 42.884,226.612 43.046,226.889 43.381 C 227.058 43.584,227.147 43.656,227.088 43.542 C 227.029 43.427,227.055 43.333,227.146 43.333 C 227.236 43.333,227.359 43.484,227.417 43.669 C 227.476 43.854,227.586 43.967,227.661 43.920 C 227.737 43.873,227.848 43.964,227.908 44.121 C 228.002 44.366,228.040 44.372,228.173 44.162 C 228.302 43.958,228.329 43.967,228.331 44.218 C 228.332 44.384,228.408 44.473,228.500 44.417 C 228.592 44.360,228.667 44.398,228.667 44.500 C 228.667 44.602,228.742 44.640,228.833 44.583 C 228.925 44.527,229.000 44.564,229.000 44.667 C 229.000 44.769,229.075 44.807,229.167 44.750 C 229.258 44.693,229.333 44.731,229.333 44.833 C 229.333 44.936,229.408 44.973,229.500 44.917 C 229.592 44.860,229.667 44.902,229.667 45.011 C 229.667 45.156,229.733 45.152,229.920 44.997 C 230.133 44.821,230.157 44.831,230.069 45.062 C 229.990 45.266,230.032 45.311,230.231 45.234 C 230.379 45.177,230.500 45.212,230.500 45.310 C 230.500 45.409,230.612 45.446,230.750 45.394 C 230.888 45.341,231.000 45.389,231.000 45.500 C 231.000 45.611,231.110 45.660,231.245 45.608 C 231.379 45.557,231.537 45.591,231.595 45.685 C 231.653 45.779,231.803 45.817,231.928 45.769 C 232.053 45.721,232.202 45.756,232.259 45.847 C 232.315 45.939,232.505 45.968,232.681 45.912 C 232.867 45.853,233.000 45.889,233.000 46.000 C 233.000 46.111,233.133 46.147,233.319 46.088 C 233.495 46.032,233.689 46.068,233.750 46.167 C 233.811 46.266,234.005 46.301,234.181 46.246 C 234.356 46.190,234.500 46.216,234.500 46.304 C 234.500 46.500,234.770 46.525,237.000 46.540 C 238.507 46.551,239.703 46.467,240.000 46.332 C 240.046 46.311,240.147 46.305,240.226 46.319 C 240.304 46.334,240.464 46.266,240.580 46.170 C 240.696 46.073,240.906 46.038,241.045 46.092 C 241.185 46.145,241.350 46.108,241.411 46.009 C 241.473 45.909,241.596 45.873,241.685 45.928 C 241.775 45.984,241.949 45.945,242.073 45.842 C 242.197 45.739,242.400 45.676,242.524 45.702 C 242.648 45.729,242.730 45.653,242.706 45.535 C 242.673 45.371,242.740 45.361,242.988 45.493 C 243.208 45.611,243.347 45.613,243.418 45.498 C 243.476 45.404,243.588 45.368,243.667 45.417 C 243.746 45.465,243.858 45.428,243.917 45.333 C 243.975 45.239,244.093 45.204,244.178 45.257 C 244.264 45.310,244.333 45.276,244.333 45.182 C 244.333 45.088,244.446 45.054,244.583 45.106 C 244.721 45.159,244.833 45.115,244.833 45.008 C 244.833 44.901,244.908 44.860,245.000 44.917 C 245.092 44.973,245.167 44.928,245.167 44.815 C 245.167 44.703,245.216 44.660,245.275 44.720 C 245.335 44.779,245.490 44.698,245.621 44.539 C 245.779 44.346,245.822 44.333,245.750 44.500 C 245.654 44.722,245.667 44.722,245.863 44.500 C 245.985 44.362,246.197 44.227,246.334 44.199 C 246.677 44.129,247.013 43.657,246.879 43.434 C 246.819 43.333,246.900 43.356,247.060 43.486 C 247.317 43.695,247.361 43.681,247.445 43.361 C 247.496 43.162,247.610 43.000,247.696 43.000 C 247.782 43.000,247.806 43.094,247.747 43.208 C 247.689 43.323,247.758 43.274,247.899 43.100 C 248.040 42.927,248.106 42.702,248.046 42.600 C 247.986 42.499,248.058 42.515,248.206 42.636 C 248.437 42.822,248.505 42.803,248.663 42.506 C 248.766 42.314,248.909 42.194,248.981 42.238 C 249.053 42.283,249.439 41.985,249.840 41.576 C 250.241 41.168,250.508 40.833,250.433 40.833 C 250.358 40.833,250.473 40.678,250.690 40.487 C 250.906 40.297,250.971 40.190,250.833 40.249 C 250.696 40.309,250.808 40.156,251.083 39.910 C 251.358 39.665,251.471 39.515,251.333 39.577 C 251.196 39.640,251.233 39.570,251.417 39.422 C 251.600 39.274,251.750 39.084,251.750 39.000 C 251.750 38.916,251.900 38.726,252.083 38.578 C 252.267 38.430,252.323 38.356,252.208 38.414 C 251.830 38.606,251.992 38.377,252.458 38.061 C 252.983 37.705,258.501 37.418,258.445 37.750 C 258.429 37.842,258.492 37.907,258.583 37.894 C 258.675 37.882,258.900 38.025,259.083 38.212 C 259.277 38.409,259.312 38.500,259.167 38.430 C 259.029 38.364,259.217 38.585,259.583 38.921 C 259.950 39.258,260.137 39.480,260.000 39.415 C 259.862 39.350,259.975 39.498,260.250 39.744 C 260.525 39.990,260.637 40.142,260.500 40.081 C 260.362 40.021,260.512 40.210,260.833 40.500 C 261.154 40.790,261.304 40.978,261.167 40.917 C 261.029 40.855,261.145 41.018,261.423 41.278 C 261.702 41.537,261.814 41.685,261.673 41.606 C 261.532 41.526,261.717 41.740,262.083 42.081 C 262.450 42.421,262.637 42.647,262.500 42.582 C 262.362 42.517,262.475 42.665,262.750 42.910 C 263.025 43.156,263.137 43.308,263.000 43.248 C 262.862 43.188,263.012 43.376,263.333 43.667 C 263.654 43.957,263.804 44.145,263.667 44.084 C 263.529 44.023,263.625 44.165,263.879 44.399 C 264.134 44.633,264.534 45.033,264.768 45.287 C 265.002 45.542,265.145 45.637,265.085 45.500 C 265.025 45.362,265.177 45.475,265.423 45.750 C 265.669 46.025,265.818 46.137,265.754 46.000 C 265.690 45.862,265.777 45.921,265.948 46.129 C 266.202 46.440,266.299 46.470,266.487 46.296 C 266.613 46.179,266.669 46.166,266.613 46.267 C 266.557 46.368,266.626 46.593,266.768 46.767 C 266.909 46.941,266.975 46.971,266.915 46.833 C 266.854 46.696,266.967 46.771,267.167 47.000 C 267.366 47.229,267.480 47.323,267.421 47.208 C 267.362 47.094,267.393 47.000,267.490 47.000 C 267.587 47.000,267.667 47.122,267.667 47.270 C 267.667 47.494,267.711 47.504,267.920 47.330 C 268.135 47.152,268.156 47.166,268.059 47.420 C 267.979 47.627,268.004 47.684,268.138 47.601 C 268.246 47.535,268.333 47.564,268.333 47.667 C 268.333 47.769,268.408 47.807,268.500 47.750 C 268.592 47.693,268.667 47.731,268.667 47.833 C 268.667 47.936,268.742 47.973,268.833 47.917 C 268.925 47.860,269.000 47.898,269.000 48.000 C 269.000 48.102,269.075 48.140,269.167 48.083 C 269.258 48.027,269.333 48.068,269.333 48.175 C 269.333 48.282,269.446 48.326,269.583 48.273 C 269.721 48.220,269.833 48.255,269.833 48.350 C 269.833 48.447,269.980 48.476,270.167 48.417 C 270.366 48.353,270.500 48.387,270.500 48.500 C 270.500 48.611,270.633 48.647,270.819 48.588 C 270.995 48.532,271.188 48.566,271.247 48.663 C 271.307 48.759,271.429 48.794,271.519 48.738 C 271.608 48.683,271.787 48.726,271.917 48.833 C 272.046 48.941,272.225 48.984,272.315 48.928 C 272.404 48.873,272.526 48.907,272.586 49.004 C 272.646 49.101,272.838 49.135,273.014 49.079 C 273.190 49.023,273.333 49.047,273.333 49.132 C 273.333 49.294,273.423 49.302,275.667 49.331 C 277.315 49.353,278.002 49.296,278.292 49.112 C 278.406 49.040,278.570 49.023,278.655 49.076 C 278.740 49.129,278.859 49.093,278.919 48.996 C 278.979 48.899,279.172 48.865,279.347 48.921 C 279.524 48.977,279.667 48.944,279.667 48.847 C 279.667 48.750,279.835 48.688,280.042 48.710 C 280.275 48.735,280.400 48.668,280.373 48.535 C 280.339 48.371,280.407 48.361,280.654 48.493 C 280.882 48.615,281.013 48.614,281.090 48.489 C 281.151 48.391,281.303 48.350,281.428 48.398 C 281.553 48.446,281.701 48.412,281.756 48.323 C 281.811 48.234,281.926 48.204,282.012 48.257 C 282.097 48.310,282.167 48.266,282.167 48.159 C 282.167 48.052,282.279 48.008,282.417 48.060 C 282.554 48.113,282.667 48.079,282.667 47.985 C 282.667 47.891,282.742 47.860,282.833 47.917 C 282.925 47.973,283.000 47.936,283.000 47.833 C 283.000 47.731,283.075 47.693,283.167 47.750 C 283.258 47.807,283.333 47.761,283.333 47.649 C 283.333 47.536,283.382 47.493,283.442 47.553 C 283.502 47.613,283.657 47.531,283.788 47.372 C 283.918 47.213,283.970 47.189,283.903 47.317 C 283.823 47.471,283.848 47.511,283.974 47.433 C 284.080 47.367,284.167 47.206,284.167 47.073 C 284.167 46.941,284.246 46.833,284.343 46.833 C 284.440 46.833,284.463 46.927,284.395 47.042 C 284.314 47.176,284.372 47.167,284.559 47.015 C 284.718 46.886,284.806 46.669,284.754 46.533 C 284.677 46.334,284.706 46.325,284.901 46.487 C 285.097 46.650,285.179 46.621,285.330 46.339 C 285.433 46.148,285.588 46.035,285.675 46.089 C 285.812 46.173,285.897 45.975,285.862 45.653 C 285.857 45.599,285.957 45.556,286.085 45.556 C 286.214 45.556,286.279 45.637,286.231 45.736 C 286.182 45.835,286.320 45.710,286.536 45.458 C 286.926 45.003,287.333 44.852,287.333 45.161 C 287.333 45.250,287.446 45.280,287.583 45.227 C 287.721 45.174,287.833 45.212,287.833 45.310 C 287.833 45.409,287.946 45.446,288.083 45.394 C 288.221 45.341,288.333 45.383,288.333 45.488 C 288.333 45.627,288.424 45.630,288.669 45.499 C 288.854 45.400,288.995 45.379,288.983 45.451 C 288.928 45.775,289.023 45.833,289.336 45.665 C 289.594 45.527,289.661 45.536,289.627 45.701 C 289.603 45.820,289.696 45.919,289.833 45.921 C 289.971 45.923,290.177 45.984,290.292 46.056 C 290.406 46.128,290.578 46.138,290.674 46.079 C 290.770 46.020,290.954 46.059,291.083 46.167 C 291.213 46.274,291.392 46.317,291.481 46.262 C 291.571 46.206,291.691 46.237,291.748 46.331 C 291.806 46.424,291.928 46.500,292.020 46.500 C 292.111 46.500,292.139 46.423,292.081 46.330 C 292.023 46.236,292.263 46.275,292.613 46.415 C 293.527 46.780,329.333 46.680,329.333 46.311 C 329.333 46.234,329.502 46.188,329.708 46.210 C 329.941 46.235,330.067 46.168,330.039 46.035 C 330.006 45.871,330.074 45.861,330.321 45.993 C 330.547 46.114,330.679 46.114,330.754 45.994 C 330.813 45.898,331.005 45.865,331.181 45.921 C 331.356 45.977,331.500 45.944,331.500 45.849 C 331.500 45.743,331.705 45.716,332.028 45.781 C 332.474 45.870,332.539 45.843,332.450 45.610 C 332.294 45.204,332.422 45.273,332.748 45.771 C 332.944 46.070,332.963 46.171,332.809 46.091 C 332.685 46.028,332.733 46.097,332.917 46.245 C 333.100 46.393,333.250 46.594,333.250 46.692 C 333.250 46.790,333.700 47.281,334.250 47.783 C 334.800 48.286,335.137 48.648,335.000 48.587 C 334.862 48.527,335.050 48.752,335.417 49.088 C 335.783 49.424,336.068 49.758,336.048 49.830 C 335.979 50.089,338.157 52.026,338.372 51.896 C 338.536 51.797,338.535 51.828,338.368 52.035 C 338.182 52.264,338.269 52.399,338.989 53.007 C 339.449 53.395,339.778 53.788,339.720 53.882 C 339.662 53.975,339.693 54.003,339.789 53.944 C 339.884 53.885,340.054 53.948,340.167 54.083 C 340.279 54.219,340.456 54.279,340.561 54.216 C 340.672 54.149,340.663 54.210,340.538 54.364 C 340.359 54.586,340.422 54.710,340.955 55.179 C 341.301 55.484,341.568 55.784,341.549 55.846 C 341.490 56.036,343.784 58.167,344.048 58.167 C 344.183 58.167,344.335 58.321,344.384 58.510 C 344.461 58.802,344.433 58.824,344.195 58.658 C 344.042 58.551,344.179 58.701,344.500 58.992 C 344.821 59.283,345.069 59.579,345.051 59.649 C 345.033 59.719,345.587 60.333,346.282 61.013 C 346.977 61.694,347.501 62.169,347.447 62.069 C 347.392 61.970,347.454 61.889,347.583 61.889 C 347.713 61.889,347.787 61.940,347.748 62.003 C 347.709 62.066,347.793 62.260,347.934 62.434 C 348.076 62.608,348.152 62.669,348.103 62.569 C 348.054 62.470,348.121 62.389,348.250 62.389 C 348.379 62.389,348.454 62.440,348.415 62.503 C 348.376 62.566,348.460 62.760,348.601 62.934 C 348.742 63.108,348.811 63.156,348.753 63.042 C 348.694 62.927,348.718 62.833,348.804 62.833 C 348.890 62.833,349.002 62.991,349.053 63.183 C 349.103 63.376,349.216 63.489,349.305 63.434 C 349.393 63.380,349.510 63.452,349.565 63.595 C 349.619 63.738,349.732 63.813,349.815 63.762 C 349.897 63.710,350.011 63.788,350.067 63.935 C 350.126 64.087,350.276 64.160,350.418 64.106 C 350.555 64.053,350.667 64.088,350.667 64.182 C 350.667 64.276,350.742 64.307,350.833 64.250 C 350.925 64.193,351.001 64.245,351.003 64.365 C 351.005 64.539,351.034 64.537,351.148 64.357 C 351.246 64.204,351.327 64.189,351.403 64.311 C 351.571 64.582,362.310 64.558,362.646 64.286 C 362.845 64.126,362.871 64.127,362.772 64.292 C 362.703 64.406,362.726 64.500,362.823 64.500 C 362.921 64.500,363.000 64.421,363.000 64.323 C 363.000 64.226,363.075 64.193,363.167 64.250 C 363.258 64.307,363.333 64.269,363.333 64.167 C 363.333 64.064,363.408 64.027,363.500 64.083 C 363.592 64.140,363.667 64.094,363.667 63.982 C 363.667 63.870,363.716 63.827,363.775 63.886 C 363.835 63.946,363.990 63.865,364.121 63.706 C 364.251 63.547,364.303 63.522,364.237 63.651 C 364.157 63.805,364.181 63.844,364.308 63.766 C 364.413 63.701,364.500 63.539,364.500 63.407 C 364.500 63.275,364.579 63.167,364.677 63.167 C 364.774 63.167,364.806 63.260,364.747 63.375 C 364.689 63.490,364.763 63.433,364.911 63.250 C 365.060 63.067,365.250 62.917,365.333 62.917 C 365.417 62.917,365.607 62.767,365.755 62.583 C 365.903 62.400,365.976 62.362,365.917 62.500 C 365.858 62.637,365.998 62.529,366.228 62.260 C 366.458 61.990,366.602 61.690,366.547 61.593 C 366.492 61.496,366.508 61.472,366.583 61.540 C 366.658 61.608,366.839 61.573,366.985 61.462 C 367.131 61.351,367.063 61.483,366.835 61.755 C 366.471 62.189,366.496 62.180,367.043 61.676 C 367.661 61.106,367.915 60.753,367.397 61.183 C 367.165 61.376,367.136 61.364,367.189 61.094 C 367.223 60.922,367.392 60.761,367.566 60.735 C 367.740 60.710,368.003 60.561,368.150 60.404 C 368.368 60.172,368.371 60.141,368.167 60.239 C 368.029 60.304,368.067 60.237,368.250 60.089 C 368.433 59.940,368.583 59.750,368.583 59.667 C 368.583 59.583,368.733 59.393,368.917 59.245 C 369.100 59.097,369.137 59.025,369.000 59.085 C 368.863 59.146,368.938 59.033,369.167 58.833 C 369.396 58.634,369.490 58.520,369.375 58.579 C 369.260 58.638,369.167 58.607,369.167 58.510 C 369.167 58.413,369.284 58.333,369.427 58.333 C 369.569 58.333,369.640 58.258,369.583 58.167 C 369.527 58.075,369.564 58.000,369.667 58.000 C 369.769 58.000,369.807 57.925,369.750 57.833 C 369.693 57.742,369.724 57.667,369.818 57.667 C 369.912 57.667,369.946 57.554,369.894 57.417 C 369.841 57.279,369.878 57.167,369.977 57.167 C 370.076 57.167,370.113 57.054,370.060 56.917 C 370.007 56.779,370.055 56.667,370.167 56.667 C 370.278 56.667,370.327 56.557,370.275 56.422 C 370.223 56.287,370.254 56.132,370.343 56.077 C 370.432 56.022,370.460 55.904,370.405 55.815 C 370.350 55.725,370.393 55.546,370.500 55.417 C 370.607 55.287,370.650 55.108,370.595 55.019 C 370.540 54.929,370.576 54.806,370.675 54.745 C 370.775 54.683,370.817 54.530,370.769 54.405 C 370.721 54.280,370.748 54.136,370.830 54.085 C 370.912 54.035,370.984 53.864,370.991 53.705 C 371.096 51.281,371.093 49.641,370.984 49.573 C 370.909 49.527,370.887 49.387,370.935 49.262 C 370.983 49.136,370.950 48.989,370.860 48.933 C 370.771 48.878,370.737 48.683,370.785 48.500 C 370.836 48.306,370.790 48.167,370.676 48.167 C 370.569 48.167,370.526 48.092,370.583 48.001 C 370.639 47.910,370.615 47.712,370.531 47.561 C 370.011 46.632,369.819 46.653,378.601 46.673 C 383.033 46.683,386.729 46.648,386.815 46.595 C 386.900 46.542,387.082 46.542,387.218 46.594 C 387.355 46.647,387.518 46.606,387.581 46.505 C 387.643 46.403,387.838 46.365,388.014 46.421 C 388.191 46.477,388.333 46.444,388.333 46.347 C 388.333 46.250,388.502 46.188,388.708 46.210 C 388.944 46.235,389.067 46.169,389.038 46.031 C 389.005 45.872,389.070 45.856,389.279 45.973 C 389.480 46.086,389.687 46.052,389.984 45.858 C 390.224 45.701,390.349 45.672,390.275 45.792 C 390.204 45.908,390.225 46.000,390.323 46.000 C 390.421 46.000,390.500 45.920,390.500 45.822 C 390.500 45.720,390.642 45.689,390.833 45.750 C 391.020 45.809,391.167 45.780,391.167 45.683 C 391.167 45.588,391.279 45.554,391.417 45.606 C 391.554 45.659,391.667 45.615,391.667 45.508 C 391.667 45.401,391.754 45.368,391.862 45.434 C 391.996 45.517,392.021 45.461,391.941 45.254 C 391.844 44.999,391.865 44.985,392.080 45.164 C 392.267 45.319,392.333 45.323,392.333 45.177 C 392.333 45.069,392.408 45.027,392.500 45.083 C 392.592 45.140,392.667 45.102,392.667 45.000 C 392.667 44.898,392.742 44.860,392.833 44.917 C 392.925 44.973,393.000 44.936,393.000 44.833 C 393.000 44.731,393.067 44.688,393.149 44.739 C 393.231 44.790,393.346 44.709,393.403 44.559 C 393.461 44.408,393.555 44.333,393.612 44.390 C 393.670 44.448,393.824 44.365,393.954 44.206 C 394.113 44.013,394.156 44.000,394.084 44.167 C 394.024 44.304,394.177 44.192,394.423 43.917 C 394.669 43.642,394.813 43.522,394.743 43.651 C 394.658 43.806,394.680 43.845,394.808 43.766 C 394.913 43.701,395.000 43.539,395.000 43.407 C 395.000 43.275,395.079 43.167,395.177 43.167 C 395.274 43.167,395.305 43.260,395.246 43.375 C 395.187 43.490,395.351 43.355,395.611 43.077 C 395.871 42.798,396.014 42.686,395.929 42.827 C 395.844 42.968,395.994 42.859,396.262 42.584 C 396.530 42.309,396.938 41.909,397.167 41.695 C 397.396 41.482,397.471 41.355,397.333 41.415 C 397.196 41.475,397.308 41.323,397.583 41.077 C 397.858 40.831,397.971 40.682,397.833 40.744 C 397.696 40.807,397.760 40.703,397.977 40.513 C 398.193 40.322,398.306 40.165,398.227 40.163 C 398.148 40.161,398.271 40.004,398.500 39.815 C 398.729 39.626,398.804 39.522,398.667 39.583 C 398.529 39.645,398.604 39.533,398.833 39.333 C 399.063 39.134,399.156 39.020,399.042 39.079 C 398.927 39.138,398.833 39.107,398.833 39.010 C 398.833 38.913,398.950 38.833,399.093 38.833 C 399.236 38.833,399.307 38.758,399.250 38.667 C 399.193 38.575,399.231 38.500,399.333 38.500 C 399.436 38.500,399.477 38.431,399.425 38.347 C 399.373 38.262,399.440 38.084,399.574 37.950 C 399.708 37.816,399.771 37.660,399.714 37.603 C 399.658 37.546,399.695 37.500,399.798 37.500 C 399.933 37.500,399.988 35.706,399.996 31.071 C 400.005 25.917,399.965 24.666,399.795 24.762 C 399.625 24.858,399.625 24.838,399.792 24.658 C 400.055 24.374,400.064 24.108,399.805 24.268 C 399.674 24.349,399.645 24.297,399.716 24.111 C 399.775 23.958,399.746 23.833,399.652 23.833 C 399.557 23.833,399.527 23.758,399.583 23.667 C 399.640 23.575,399.569 23.500,399.427 23.500 C 399.284 23.500,399.157 23.387,399.146 23.250 C 399.101 22.712,399.075 22.649,398.833 22.496 C 398.696 22.410,398.648 22.337,398.727 22.336 C 398.806 22.334,398.693 22.178,398.477 21.987 C 398.260 21.797,398.196 21.693,398.333 21.756 C 398.471 21.818,398.358 21.669,398.083 21.423 C 397.808 21.177,397.696 21.025,397.833 21.084 C 397.971 21.143,397.896 21.028,397.667 20.827 C 397.438 20.627,397.250 20.397,397.250 20.318 C 397.250 20.238,397.080 20.054,396.872 19.908 C 396.661 19.761,396.544 19.557,396.607 19.447 C 396.669 19.339,396.661 19.303,396.589 19.368 C 396.517 19.433,396.312 19.320,396.133 19.118 C 395.954 18.916,395.859 18.862,395.922 19.000 C 395.985 19.137,395.835 19.025,395.590 18.750 C 395.344 18.475,395.192 18.362,395.252 18.500 C 395.313 18.637,395.199 18.563,395.000 18.333 C 394.801 18.104,394.678 17.998,394.728 18.097 C 394.778 18.197,394.713 18.278,394.583 18.278 C 394.454 18.278,394.380 18.226,394.419 18.163 C 394.458 18.101,394.374 17.907,394.232 17.733 C 394.091 17.559,394.025 17.529,394.085 17.667 C 394.146 17.804,394.049 17.737,393.870 17.517 C 393.623 17.214,393.522 17.173,393.452 17.350 C 393.384 17.522,393.356 17.508,393.346 17.298 C 393.332 16.992,392.780 16.609,392.605 16.784 C 392.547 16.842,392.500 16.804,392.500 16.700 C 392.500 16.592,392.381 16.556,392.223 16.617 C 392.020 16.695,391.982 16.663,392.083 16.500 C 392.184 16.337,392.147 16.305,391.944 16.383 C 391.791 16.442,391.667 16.419,391.667 16.333 C 391.667 16.247,391.554 16.220,391.417 16.273 C 391.279 16.326,391.167 16.288,391.167 16.190 C 391.167 16.091,391.054 16.054,390.917 16.106 C 390.779 16.159,390.667 16.111,390.667 16.000 C 390.667 15.882,390.554 15.841,390.396 15.902 C 390.246 15.959,390.021 15.920,389.896 15.816 C 389.722 15.672,389.598 15.681,389.385 15.855 C 389.224 15.985,389.153 15.999,389.221 15.887 C 389.396 15.595,389.025 15.438,388.733 15.681 C 388.528 15.851,388.491 15.846,388.532 15.653 C 388.560 15.523,388.471 15.415,388.333 15.412 C 388.196 15.410,387.990 15.349,387.875 15.277 C 387.760 15.206,387.588 15.195,387.493 15.255 C 387.397 15.314,387.214 15.275,387.087 15.169 C 386.915 15.027,386.765 15.025,386.508 15.162 C 386.271 15.289,386.176 15.292,386.206 15.170 C 386.237 15.046,382.333 14.994,373.167 14.995 C 364.119 14.997,360.097 15.052,360.127 15.173 C 360.157 15.290,360.057 15.286,359.825 15.162 C 359.569 15.025,359.418 15.027,359.247 15.169 C 359.119 15.275,358.941 15.317,358.852 15.262 C 358.763 15.206,358.639 15.243,358.578 15.342 C 358.517 15.441,358.364 15.483,358.238 15.435 C 358.113 15.387,357.963 15.425,357.905 15.519 C 357.847 15.613,357.697 15.650,357.572 15.602 C 357.447 15.554,357.297 15.591,357.238 15.685 C 357.180 15.779,357.028 15.816,356.900 15.767 C 356.772 15.717,356.667 15.758,356.667 15.856 C 356.667 15.955,356.554 15.992,356.417 15.940 C 356.279 15.887,356.167 15.921,356.167 16.015 C 356.167 16.109,356.092 16.140,356.000 16.083 C 355.908 16.027,355.833 16.064,355.833 16.167 C 355.833 16.269,355.758 16.307,355.667 16.250 C 355.523 16.161,355.436 16.353,355.471 16.681 C 355.477 16.734,355.376 16.778,355.248 16.778 C 355.120 16.778,355.055 16.697,355.105 16.597 C 355.155 16.498,355.033 16.604,354.833 16.833 C 354.634 17.063,354.521 17.137,354.581 17.000 C 354.642 16.862,354.573 16.896,354.429 17.074 C 354.285 17.251,354.167 17.458,354.167 17.532 C 354.167 17.606,354.087 17.667,353.990 17.667 C 353.893 17.667,353.867 17.573,353.932 17.458 C 353.997 17.344,353.776 17.508,353.442 17.824 C 352.811 18.420,352.683 18.604,353.042 18.402 C 353.205 18.310,353.207 18.331,353.048 18.502 C 352.799 18.771,352.041 18.868,351.905 18.648 C 351.850 18.559,351.662 18.532,351.486 18.588 C 351.295 18.648,351.167 18.610,351.167 18.493 C 351.167 18.381,351.051 18.342,350.896 18.402 C 350.746 18.459,350.525 18.423,350.403 18.322 C 350.281 18.221,350.108 18.183,350.019 18.238 C 349.929 18.294,349.807 18.259,349.747 18.163 C 349.688 18.066,349.501 18.030,349.333 18.083 C 349.165 18.137,348.980 18.102,348.920 18.006 C 348.861 17.910,348.638 17.876,348.425 17.930 C 348.211 17.983,347.998 17.965,347.951 17.889 C 347.848 17.722,345.536 17.740,345.133 17.910 C 344.977 17.976,344.767 17.979,344.667 17.917 C 344.567 17.855,344.379 17.893,344.250 18.000 C 344.121 18.107,343.933 18.145,343.833 18.083 C 343.734 18.022,343.546 18.059,343.417 18.167 C 343.287 18.274,343.108 18.317,343.019 18.262 C 342.929 18.206,342.806 18.243,342.745 18.342 C 342.683 18.441,342.519 18.479,342.379 18.425 C 342.239 18.371,342.025 18.410,341.903 18.511 C 341.781 18.613,341.608 18.650,341.519 18.595 C 341.429 18.540,341.306 18.576,341.245 18.675 C 341.183 18.775,341.030 18.817,340.905 18.769 C 340.780 18.721,340.635 18.750,340.583 18.833 C 340.532 18.917,340.379 18.943,340.245 18.892 C 340.110 18.840,340.000 18.878,340.000 18.977 C 340.000 19.076,339.887 19.113,339.750 19.060 C 339.612 19.008,339.500 19.052,339.500 19.159 C 339.500 19.266,339.425 19.307,339.333 19.250 C 339.242 19.193,339.167 19.230,339.167 19.331 C 339.167 19.606,338.615 19.460,338.360 19.117 C 338.173 18.866,338.093 18.853,337.870 19.034 C 337.723 19.153,337.649 19.173,337.705 19.079 C 337.761 18.984,337.657 18.722,337.473 18.495 C 337.288 18.269,337.190 18.196,337.254 18.333 C 337.318 18.471,337.169 18.358,336.923 18.083 C 336.677 17.808,336.525 17.696,336.584 17.833 C 336.643 17.971,336.547 17.919,336.369 17.718 C 336.119 17.436,336.001 17.398,335.845 17.552 C 335.734 17.661,335.657 17.675,335.674 17.583 C 335.743 17.224,335.659 16.985,335.499 17.084 C 335.407 17.141,335.286 17.071,335.231 16.928 C 335.177 16.785,335.065 16.710,334.983 16.761 C 334.900 16.812,334.833 16.769,334.833 16.667 C 334.833 16.564,334.758 16.527,334.667 16.583 C 334.575 16.640,334.500 16.602,334.500 16.500 C 334.500 16.398,334.425 16.360,334.333 16.417 C 334.242 16.473,334.167 16.436,334.167 16.333 C 334.167 16.231,334.092 16.193,334.000 16.250 C 333.908 16.307,333.833 16.276,333.833 16.182 C 333.833 16.088,333.721 16.054,333.583 16.106 C 333.446 16.159,333.333 16.122,333.333 16.023 C 333.333 15.924,333.228 15.884,333.100 15.933 C 332.972 15.982,332.820 15.946,332.762 15.852 C 332.703 15.758,332.546 15.723,332.411 15.775 C 332.277 15.827,332.167 15.781,332.167 15.673 C 332.167 15.553,332.037 15.519,331.833 15.583 C 331.642 15.644,331.500 15.613,331.500 15.511 C 331.500 15.413,331.421 15.333,331.323 15.333 C 331.226 15.333,331.193 15.407,331.249 15.498 C 331.307 15.593,331.240 15.621,331.092 15.564 C 330.950 15.509,330.833 15.392,330.833 15.304 C 330.833 15.216,330.690 15.190,330.514 15.246 C 330.338 15.301,330.146 15.269,330.087 15.173 C 330.013 15.052,329.880 15.052,329.654 15.173 C 329.410 15.304,329.340 15.296,329.373 15.140 C 329.432 14.858,330.603 14.876,310.646 14.850 C 298.917 14.834,292.723 14.884,292.428 14.996 C 292.102 15.120,292.012 15.115,292.097 14.978 C 292.168 14.863,292.123 14.823,291.982 14.874 C 291.854 14.920,291.770 15.046,291.794 15.153 C 291.826 15.295,291.751 15.301,291.512 15.173 C 291.286 15.052,291.154 15.052,291.079 15.173 C 291.020 15.269,290.828 15.301,290.653 15.246 C 290.466 15.186,290.333 15.223,290.333 15.333 C 290.333 15.447,290.200 15.480,290.000 15.417 C 289.800 15.353,289.667 15.387,289.667 15.500 C 289.667 15.613,289.533 15.647,289.333 15.583 C 289.129 15.519,289.000 15.553,289.000 15.673 C 289.000 15.781,288.890 15.827,288.755 15.775 C 288.621 15.723,288.463 15.758,288.405 15.852 C 288.347 15.946,288.195 15.982,288.066 15.933 C 287.938 15.884,287.833 15.924,287.833 16.023 C 287.833 16.122,287.721 16.159,287.583 16.106 C 287.446 16.054,287.333 16.088,287.333 16.182 C 287.333 16.276,287.258 16.307,287.167 16.250 C 287.075 16.193,287.000 16.231,287.000 16.333 C 287.000 16.436,286.925 16.473,286.833 16.417 C 286.742 16.360,286.667 16.398,286.667 16.500 C 286.667 16.602,286.579 16.632,286.472 16.566 C 286.338 16.483,286.313 16.539,286.392 16.746 C 286.490 17.001,286.468 17.015,286.254 16.836 C 286.044 16.663,286.000 16.673,286.000 16.896 C 286.000 17.045,285.921 17.167,285.823 17.167 C 285.726 17.167,285.701 17.080,285.766 16.974 C 285.840 16.855,285.812 16.827,285.692 16.901 C 285.587 16.966,285.500 17.128,285.500 17.260 C 285.500 17.392,285.421 17.500,285.323 17.500 C 285.226 17.500,285.194 17.406,285.253 17.292 C 285.311 17.177,285.235 17.233,285.084 17.417 C 284.933 17.600,284.745 17.733,284.665 17.712 C 284.585 17.691,284.473 17.822,284.416 18.003 C 284.358 18.185,284.236 18.333,284.146 18.333 C 284.055 18.333,284.028 18.240,284.086 18.125 C 284.143 18.010,283.990 18.142,283.744 18.417 C 283.498 18.692,283.346 18.804,283.406 18.667 C 283.466 18.529,283.390 18.585,283.237 18.792 C 282.947 19.184,282.500 19.299,282.500 18.982 C 282.500 18.881,282.387 18.841,282.250 18.894 C 282.112 18.946,282.000 18.919,282.000 18.833 C 282.000 18.747,281.887 18.720,281.750 18.773 C 281.612 18.826,281.500 18.781,281.500 18.673 C 281.500 18.553,281.371 18.519,281.167 18.583 C 280.967 18.647,280.833 18.613,280.833 18.500 C 280.833 18.389,280.701 18.353,280.514 18.412 C 280.338 18.468,280.145 18.432,280.083 18.333 C 280.022 18.234,279.828 18.199,279.653 18.254 C 279.466 18.314,279.333 18.277,279.333 18.167 C 279.333 18.056,279.201 18.020,279.014 18.079 C 278.838 18.135,278.646 18.101,278.586 18.004 C 278.526 17.907,278.404 17.873,278.315 17.928 C 278.225 17.984,278.062 17.958,277.951 17.872 C 277.840 17.785,277.206 17.722,276.542 17.732 C 275.877 17.742,275.333 17.692,275.333 17.622 C 275.333 17.551,272.071 17.513,268.083 17.538 C 261.405 17.580,260.524 17.544,261.000 17.250 C 261.111 17.182,261.105 17.029,260.984 16.803 C 260.868 16.586,260.863 16.499,260.972 16.566 C 261.239 16.731,261.386 16.348,261.161 16.076 C 260.998 15.880,261.013 15.833,261.241 15.833 C 261.442 15.833,261.494 15.743,261.421 15.514 C 261.365 15.338,261.398 15.146,261.494 15.087 C 261.614 15.013,261.614 14.880,261.493 14.654 C 261.364 14.412,261.371 14.340,261.523 14.373 C 261.759 14.424,261.846 11.528,261.614 11.384 C 261.539 11.338,261.521 11.185,261.575 11.045 C 261.629 10.906,261.593 10.696,261.497 10.580 C 261.401 10.464,261.340 10.304,261.363 10.226 C 261.386 10.147,261.306 9.906,261.185 9.688 C 261.056 9.454,261.041 9.339,261.150 9.406 C 261.251 9.469,261.333 9.440,261.333 9.343 C 261.333 9.246,261.266 9.167,261.184 9.167 C 261.103 9.167,260.991 9.050,260.936 8.908 C 260.874 8.746,260.905 8.692,261.019 8.762 C 261.119 8.824,261.062 8.662,260.892 8.402 C 260.661 8.048,260.646 7.965,260.833 8.073 C 261.029 8.185,261.041 8.170,260.888 8.004 C 260.781 7.888,260.732 7.689,260.781 7.563 C 260.829 7.437,260.786 7.333,260.684 7.333 C 260.583 7.333,260.500 7.221,260.500 7.083 C 260.500 6.946,260.406 6.832,260.292 6.831 C 260.137 6.829,260.142 6.791,260.308 6.686 C 260.486 6.573,260.451 6.464,260.141 6.164 C 259.926 5.955,259.862 5.839,260.000 5.907 C 260.137 5.974,260.063 5.866,259.833 5.667 C 259.604 5.467,259.529 5.357,259.667 5.420 C 259.804 5.484,259.692 5.335,259.417 5.090 C 259.142 4.844,259.029 4.692,259.167 4.752 C 259.304 4.813,259.229 4.699,259.000 4.500 C 258.771 4.301,258.696 4.187,258.833 4.248 C 258.971 4.308,258.858 4.156,258.583 3.910 C 258.308 3.665,258.196 3.519,258.333 3.588 C 258.471 3.656,258.397 3.533,258.168 3.315 C 257.940 3.096,257.579 2.729,257.365 2.500 C 257.151 2.271,257.023 2.177,257.081 2.292 C 257.144 2.416,257.077 2.500,256.917 2.500 C 256.768 2.500,256.687 2.436,256.735 2.358 C 256.783 2.280,256.707 2.073,256.566 1.900 C 256.424 1.726,256.360 1.696,256.423 1.833 C 256.485 1.971,256.335 1.858,256.090 1.583 C 255.844 1.308,255.692 1.196,255.752 1.333 C 255.813 1.471,255.699 1.396,255.500 1.167 C 255.301 0.938,255.188 0.862,255.250 1.000 C 255.312 1.137,255.199 1.063,255.000 0.833 C 254.801 0.604,254.687 0.529,254.748 0.667 C 254.821 0.832,254.778 0.819,254.621 0.628 C 254.490 0.469,254.335 0.387,254.275 0.447 C 254.216 0.507,254.167 0.464,254.167 0.351 C 254.167 0.239,254.092 0.193,254.000 0.250 C 253.908 0.307,253.833 0.277,253.833 0.184 C 253.833 0.074,251.680 0.014,247.567 0.010 C 241.848 0.006,241.309 0.029,241.404 0.276 M250.419 7.285 C 253.042 8.629,254.448 11.535,253.790 14.250 C 253.657 14.800,252.815 17.012,251.919 19.165 C 250.045 23.671,249.949 24.062,250.551 24.762 L 250.971 25.250 264.110 25.334 L 277.250 25.418 278.333 25.805 C 286.504 28.728,285.536 40.224,277.008 41.544 C 273.079 42.152,271.190 40.967,266.378 34.876 C 263.802 31.616,263.248 31.005,262.479 30.580 L 261.583 30.083 255.785 30.032 C 248.013 29.963,247.726 30.056,246.077 33.196 C 243.769 37.587,239.329 39.671,234.766 38.504 C 228.467 36.893,225.497 29.899,228.770 24.386 C 229.349 23.411,242.310 9.040,243.433 8.128 C 245.416 6.519,248.256 6.176,250.419 7.285 M218.820 15.686 C 228.852 17.391,227.848 31.391,217.667 31.756 C 216.796 31.787,216.018 31.817,215.938 31.823 C 215.656 31.843,216.216 32.337,217.082 32.832 C 220.710 34.908,220.757 39.544,217.167 41.231 L 216.417 41.583 195.250 41.583 C 175.042 41.583,174.042 41.569,173.167 41.273 C 164.164 38.224,166.351 25.477,175.875 25.486 C 177.855 25.488,177.872 25.409,176.125 24.281 C 172.188 21.740,172.770 16.706,177.120 15.682 C 178.089 15.454,217.475 15.458,218.820 15.686 M192.833 20.284 C 191.657 20.714,191.591 21.544,192.583 23.426 C 194.443 26.951,192.515 30.500,188.741 30.500 C 187.613 30.500,186.940 30.250,184.557 28.945 C 181.083 27.043,181.081 27.074,184.375 31.297 C 189.182 37.461,188.462 37.072,195.083 37.078 C 201.768 37.085,202.497 36.719,200.939 34.132 C 198.744 30.487,200.584 26.762,204.583 26.753 L 205.917 26.750 208.543 28.137 C 212.497 30.224,212.537 30.391,207.576 24.152 C 204.257 19.979,204.697 20.162,198.021 20.180 C 195.305 20.187,192.971 20.234,192.833 20.284 M109.070 22.960 C 116.925 25.946,116.197 36.861,108.027 38.592 C 106.339 38.950,73.447 38.940,71.753 38.581 C 62.968 36.720,63.161 24.270,72.000 22.670 C 72.412 22.595,80.700 22.545,90.417 22.559 L 108.083 22.585 109.070 22.960 M159.020 22.740 C 167.869 24.615,167.589 37.246,158.667 38.659 C 157.170 38.896,124.470 38.893,123.000 38.656 C 114.169 37.230,113.968 24.358,122.750 22.695 C 124.210 22.419,157.700 22.460,159.020 22.740 M329.737 22.960 C 337.596 25.948,336.869 36.860,328.694 38.592 C 327.006 38.950,294.114 38.940,292.420 38.581 C 283.635 36.720,283.828 24.270,292.667 22.670 C 293.079 22.595,301.367 22.545,311.083 22.559 L 328.750 22.585 329.737 22.960 M17.178 22.935 C 19.625 23.661,20.321 24.278,24.204 29.167 C 28.496 34.571,27.586 34.165,35.417 34.165 C 43.005 34.165,43.152 34.114,44.793 30.932 C 46.593 27.443,49.744 25.509,53.643 25.502 C 60.811 25.490,65.546 32.987,62.352 39.293 C 61.167 41.633,47.838 56.066,46.043 56.953 C 41.722 59.088,36.911 56.125,36.919 51.333 L 36.922 49.750 38.726 45.417 C 40.869 40.271,40.876 40.240,40.199 39.481 L 39.694 38.917 26.389 38.833 C 11.596 38.741,12.686 38.825,10.626 37.617 C 2.674 32.955,8.319 20.307,17.178 22.935 M387.500 23.125 C 395.189 25.759,395.449 35.683,387.903 38.539 C 386.919 38.911,386.881 38.912,373.750 38.998 C 359.593 39.090,360.057 39.058,359.677 39.976 C 359.411 40.617,359.467 40.796,361.381 45.417 C 363.695 51.005,363.831 51.910,362.702 54.204 C 360.580 58.514,355.488 59.022,351.858 55.284 C 348.775 52.110,338.906 41.173,338.325 40.287 C 334.213 34.013,338.944 25.598,346.583 25.598 C 350.444 25.598,353.661 27.644,355.590 31.328 C 357.149 34.304,357.237 34.331,365.304 34.332 L 371.526 34.333 372.013 33.846 C 372.996 32.863,372.591 32.055,370.508 30.838 C 368.014 29.382,364.979 28.247,361.837 27.598 C 359.540 27.122,359.265 27.002,358.825 26.281 C 357.989 24.911,358.738 23.222,360.354 22.830 C 361.850 22.468,386.359 22.734,387.500 23.125 M75.559 28.349 C 73.149 29.047,73.518 32.714,76.035 33.082 C 78.053 33.378,89.296 33.094,89.780 32.735 C 91.627 31.365,91.217 28.824,89.069 28.326 C 88.222 28.130,76.246 28.150,75.559 28.349 M126.579 28.340 C 124.588 28.934,124.282 31.676,126.083 32.778 C 126.707 33.159,138.866 33.347,140.083 32.995 C 142.310 32.350,142.653 29.760,140.666 28.592 C 140.027 28.217,127.730 27.997,126.579 28.340 M296.267 28.340 C 293.973 29.026,294.048 32.340,296.373 32.986 C 297.773 33.376,309.873 33.159,310.446 32.735 C 312.294 31.365,311.884 28.824,309.736 28.326 C 308.908 28.134,296.914 28.146,296.267 28.340 M93.991 28.970 C 93.272 29.689,93.080 30.234,93.242 31.098 C 93.761 33.867,98.045 33.482,98.045 30.667 C 98.045 28.575,95.465 27.495,93.991 28.970 M144.977 28.965 C 144.170 29.717,143.943 30.750,144.392 31.619 C 145.587 33.930,148.998 33.225,148.998 30.667 C 148.998 28.565,146.527 27.519,144.977 28.965 M314.658 28.970 C 313.938 29.689,313.746 30.234,313.908 31.098 C 314.428 33.867,318.712 33.482,318.712 30.667 C 318.712 28.575,316.132 27.495,314.658 28.970 M249.738 41.512 C 249.394 41.865,249.035 42.105,248.939 42.046 C 248.833 41.980,248.859 41.911,249.008 41.865 C 249.382 41.751,250.000 41.135,250.000 40.878 C 250.000 40.751,250.082 40.698,250.182 40.759 C 250.295 40.829,250.127 41.114,249.738 41.512 M64.567 48.974 C 64.615 49.051,64.376 49.369,64.037 49.682 C 63.697 49.994,63.577 50.063,63.768 49.833 C 63.960 49.604,64.163 49.285,64.220 49.125 C 64.333 48.804,64.435 48.760,64.567 48.974 M336.774 50.083 C 336.911 50.221,336.967 50.333,336.897 50.333 C 336.828 50.333,336.987 50.558,337.250 50.833 C 337.513 51.108,337.693 51.333,337.649 51.333 C 337.605 51.333,337.238 50.996,336.833 50.583 C 336.428 50.171,336.193 49.833,336.311 49.833 C 336.428 49.833,336.636 49.946,336.774 50.083 M60.833 53.245 C 60.833 53.258,60.552 53.526,60.209 53.842 C 59.662 54.345,59.641 54.353,60.044 53.905 C 60.298 53.624,60.466 53.355,60.419 53.308 C 60.372 53.261,60.446 53.222,60.583 53.222 C 60.721 53.222,60.833 53.233,60.833 53.245 M345.417 59.667 C 345.360 59.758,345.375 59.833,345.450 59.833 C 345.525 59.833,345.689 60.002,345.815 60.208 C 346.038 60.574,346.034 60.574,345.610 60.184 C 345.240 59.843,345.153 59.500,345.436 59.500 C 345.482 59.500,345.473 59.575,345.417 59.667 " stroke="none" fill="#9c94dc" fill-rule="evenodd"></path></g></svg>